<svg xmlns="http://www.w3.org/2000/svg" xmlns:xlink="http://www.w3.org/1999/xlink" xml:lang="en" height="195.82239999999996pt" width="347.59999999999997pt" viewBox="-37.0 -168.18239999999997 347.59999999999997 195.82239999999996"><circle cx="2.204364238465236e-15" cy="-68.39999999999999" r="32.4" style="stroke:black;fill:none;stroke-width:2.0;stroke-dasharray:-;" /><circle cx="136.8" cy="-68.39999999999999" r="32.4" style="stroke:black;fill:none;stroke-width:2.0;stroke-dasharray:-;" /><circle cx="273.6" cy="-68.39999999999999" r="32.4" style="stroke:black;fill:none;stroke-width:2.0;stroke-dasharray:-;" /><path d="M 0.0,-0.0 L 0.0,14.4 L -9.0,14.4 L 9.0,14.4 M -6.3,18.72 L 6.3,18.72 M -1.8,23.04 L 1.8,23.04" style="stroke:black;fill:none;stroke-width:2.0;stroke-dasharray:-;stroke-linecap:round;stroke-linejoin:round;" /><path d="M 0.0,-0.0 L 9.037893377707467e-16,-14.760000000000002 M -8.999999999999998,-14.760000000000002 L 9.0,-14.760000000000002 M -8.999999999999998,-21.240000000000002 L 9.000000000000002,-21.240000000000002 M 1.3005749006944893e-15,-21.240000000000002 L 2.204364238465236e-15,-36.0" style="stroke:black;fill:none;stroke-width:2.0;stroke-dasharray:-;stroke-linecap:round;stroke-linejoin:round;" /><path d="M 32.400000000000006,-68.39999999999999 L 65.16,-68.39999999999999 M 65.16,-77.39999999999999 L 65.16,-59.4 M 71.64000000000001,-77.39999999999999 L 71.64000000000001,-59.4 M 71.64000000000001,-68.39999999999999 L 104.4,-68.39999999999999" style="stroke:black;fill:none;stroke-width:2.0;stroke-dasharray:-;stroke-linecap:round;stroke-linejoin:round;" /><path d="M 136.8,-35.99999999999999 L 136.8,-21.239999999999995 M 145.79999999999998,-21.239999999999995 L 127.80000000000001,-21.239999999999995 M 145.79999999999998,-14.759999999999993 L 127.80000000000001,-14.759999999999993 M 136.8,-14.759999999999993 L 136.8,3.9968028886505635e-15" style="stroke:black;fill:none;stroke-width:2.0;stroke-dasharray:-;stroke-linecap:round;stroke-linejoin:round;" /><path d="M 136.8,3.9968028886505635e-15 L 136.8,14.400000000000006 L 127.80000000000001,14.400000000000006 L 145.8,14.400000000000006 M 130.50000000000003,18.720000000000006 L 143.1,18.720000000000006 M 135.00000000000003,23.040000000000006 L 138.6,23.040000000000006" style="stroke:black;fill:none;stroke-width:2.0;stroke-dasharray:-;stroke-linecap:round;stroke-linejoin:round;" /><path d="M 169.20000000000002,-68.39999999999999 L 201.96,-68.39999999999999 M 201.96,-77.39999999999999 L 201.96,-59.4 M 208.44,-77.39999999999999 L 208.44,-59.4 M 208.44,-68.39999999999999 L 241.20000000000002,-68.39999999999999" style="stroke:black;fill:none;stroke-width:2.0;stroke-dasharray:-;stroke-linecap:round;stroke-linejoin:round;" /><path d="M 273.6,-35.99999999999999 L 273.6,-21.239999999999995 M 282.6,-21.239999999999995 L 264.6,-21.239999999999995 M 282.6,-14.759999999999993 L 264.6,-14.759999999999993 M 273.6,-14.759999999999993 L 273.6,3.9968028886505635e-15" style="stroke:black;fill:none;stroke-width:2.0;stroke-dasharray:-;stroke-linecap:round;stroke-linejoin:round;" /><path d="M 273.6,3.9968028886505635e-15 L 273.6,14.400000000000006 L 264.6,14.400000000000006 L 282.6,14.400000000000006 M 267.3,18.720000000000006 L 279.90000000000003,18.720000000000006 M 271.8,23.040000000000006 L 275.40000000000003,23.040000000000006" style="stroke:black;fill:none;stroke-width:2.0;stroke-dasharray:-;stroke-linecap:round;stroke-linejoin:round;" /><path d="M 2.204364238465236e-15,-100.8 L 3.3065463576978533e-15,-118.8 L 4.408728476930472e-15,-136.79999999999998" style="stroke:black;fill:none;stroke-width:2.0;stroke-dasharray:-;stroke-linecap:round;stroke-linejoin:round;" /><path d="M 273.6,-100.8 L 273.6,-118.8 L 273.6,-136.79999999999998" style="stroke:black;fill:none;stroke-width:2.0;stroke-dasharray:-;stroke-linecap:round;stroke-linejoin:round;" /><path d="M 4.408728476930472e-15,-136.79999999999998 L 133.56,-136.79999999999998 M 133.56,-145.79999999999998 L 133.56,-127.8 M 140.04000000000002,-145.79999999999998 L 140.04000000000002,-127.8 M 140.04000000000002,-136.79999999999998 L 273.6,-136.79999999999998" style="stroke:black;fill:none;stroke-width:2.0;stroke-dasharray:-;stroke-linecap:round;stroke-linejoin:round;" /><g><g><g><path d="M -24.242 -16.64 L -24.242 -16.64 L -23.954 -16.336 Q -24.77 -15.376 -25.842 -14.76 Q -26.914 -14.144 -28.434 -14.144 Q -29.874 -14.144 -30.738 -14.68 Q -31.602 -15.216 -31.978 -16.112 Q -32.354 -17.008 -32.354 -18.064 Q -32.354 -19.744 -31.842 -21.048 Q -31.33 -22.352 -30.442 -23.24 Q -29.554 -24.128 -28.434 -24.584 Q -27.314 -25.04 -26.098 -25.04 Q -25.282 -25.04 -24.826 -24.896 Q -24.37 -24.752 -24.114 -24.6 Q -23.858 -24.448 -23.666 -24.448 Q -23.474 -24.448 -23.33 -24.608 Q -23.186 -24.768 -22.994 -25.024 L -22.53 -25.024 L -23.282 -21.36 L -23.81 -21.36 Q -23.746 -22.96 -24.402 -23.656 Q -25.058 -24.352 -26.242 -24.352 Q -27.17 -24.352 -27.986 -23.928 Q -28.802 -23.504 -29.434 -22.728 Q -30.066 -21.952 -30.426 -20.872 Q -30.786 -19.792 -30.786 -18.464 Q -30.786 -16.864 -30.026 -16.024 Q -29.266 -15.184 -27.682 -15.184 Q -25.842 -15.184 -24.242 -16.64 Z " fill="black" /><path d="M -18.203 -10.96 L -18.203 -10.96 L -22 -10.96 L -22 -11.363 Q -21.194 -11.363 -20.93 -11.526 Q -20.667 -11.688 -20.667 -12.114 L -20.667 -16.997 Q -20.667 -17.299 -20.757 -17.434 Q -20.846 -17.568 -21.082 -17.568 Q -21.261 -17.568 -21.569 -17.518 Q -21.877 -17.467 -22.101 -17.411 L -22.101 -17.859 L -20.029 -18.43 L -19.547 -18.43 L -19.547 -12.114 Q -19.547 -11.688 -19.262 -11.526 Q -18.976 -11.363 -18.203 -11.363 Z " fill="black" /><path d="M -12.502 -10.96 L -12.502 -10.96 L -16.299 -10.96 L -16.299 -11.363 Q -15.493 -11.363 -15.23 -11.526 Q -14.966 -11.688 -14.966 -12.114 L -14.966 -16.997 Q -14.966 -17.299 -15.056 -17.434 Q -15.146 -17.568 -15.381 -17.568 Q -15.56 -17.568 -15.868 -17.518 Q -16.176 -17.467 -16.4 -17.411 L -16.4 -17.859 L -14.328 -18.43 L -13.846 -18.43 L -13.846 -12.114 Q -13.846 -11.688 -13.561 -11.526 Q -13.275 -11.363 -12.502 -11.363 Z " fill="black" /></g></g></g><g><g><g><path d="M 2.304 -81.752 L 2.304 -81.752 L 2.208 -81.272 Q 1.776 -81.272 1.544 -81.192 Q 1.312 -81.112 1.136 -80.952 Q 0.992 -80.824 0.848 -80.64 Q 0.704 -80.456 0.576 -80.104 Q 0.448 -79.752 0.32 -79.128 L -1.312 -71.112 L -1.84 -71.112 L -6.544 -79.704 L -6.624 -79.704 L -7.872 -73.624 Q -8.032 -72.824 -8 -72.416 Q -7.968 -72.008 -7.672 -71.864 Q -7.376 -71.72 -6.784 -71.72 L -6.88 -71.24 L -10.56 -71.24 L -10.464 -71.72 Q -9.84 -71.72 -9.504 -71.856 Q -9.168 -71.992 -8.992 -72.408 Q -8.816 -72.824 -8.656 -73.624 L -7.232 -80.536 Q -7.504 -80.984 -7.776 -81.128 Q -8.048 -81.272 -8.56 -81.272 L -8.464 -81.752 L -5.952 -81.752 L -1.632 -73.88 L -1.552 -73.88 L -0.448 -79.208 Q -0.304 -79.928 -0.296 -80.296 Q -0.288 -80.664 -0.4 -80.872 Q -0.544 -81.112 -0.8 -81.192 Q -1.056 -81.272 -1.568 -81.272 L -1.472 -81.752 Z " fill="black" /><path d="M 9.12 -71.24 L 9.12 -71.24 L 3.584 -71.24 L 3.584 -71.688 Q 4.72 -71.688 5.184 -71.928 Q 5.648 -72.168 5.648 -72.76 L 5.648 -79.528 Q 5.648 -79.944 5.536 -80.128 Q 5.424 -80.312 5.12 -80.312 Q 4.88 -80.312 4.368 -80.248 Q 3.856 -80.184 3.488 -80.056 L 3.488 -80.584 L 6.592 -81.464 L 7.056 -81.464 L 7.056 -72.76 Q 7.056 -72.168 7.536 -71.928 Q 8.016 -71.688 9.12 -71.688 Z " fill="black" /></g><g><path d="M -24.768 -63.304 L -24.768 -63.304 L -24.8 -66.536 L -23.376 -66.536 L -23.376 -66.248 L -24.16 -63.304 Z M -27.12 -63.304 L -27.12 -63.304 L -27.136 -66.536 L -25.728 -66.536 L -25.728 -66.248 L -26.512 -63.304 Z " fill="black" /><path d="M -19.184 -55.24 L -19.184 -55.24 L -22.608 -65.752 L -21.152 -65.752 L -19.424 -60.088 Q -19.152 -59.16 -18.928 -58.352 Q -18.704 -57.544 -18.4 -56.616 L -18.32 -56.616 Q -18.032 -57.544 -17.8 -58.352 Q -17.568 -59.16 -17.296 -60.088 L -15.584 -65.752 L -14.192 -65.752 L -17.6 -55.24 Z " fill="black" /><path d="M -9.728 -55.048 L -9.728 -55.048 Q -10.88 -55.048 -11.832 -55.472 Q -12.784 -55.896 -13.488 -56.6 L -12.672 -57.544 Q -12.096 -56.952 -11.32 -56.6 Q -10.544 -56.248 -9.664 -56.248 Q -8.64 -56.248 -8.056 -56.712 Q -7.472 -57.176 -7.472 -57.96 Q -7.472 -58.472 -7.704 -58.792 Q -7.936 -59.112 -8.344 -59.336 Q -8.752 -59.56 -9.264 -59.768 L -10.8 -60.424 Q -11.264 -60.632 -11.776 -60.96 Q -12.288 -61.288 -12.632 -61.808 Q -12.976 -62.328 -12.976 -63.096 Q -12.976 -63.928 -12.536 -64.568 Q -12.096 -65.208 -11.336 -65.568 Q -10.576 -65.928 -9.616 -65.928 Q -8.64 -65.928 -7.824 -65.568 Q -7.008 -65.208 -6.432 -64.632 L -7.152 -63.752 Q -7.664 -64.216 -8.264 -64.48 Q -8.864 -64.744 -9.584 -64.744 Q -10.496 -64.744 -11.04 -64.336 Q -11.584 -63.928 -11.584 -63.224 Q -11.584 -62.728 -11.32 -62.408 Q -11.056 -62.088 -10.648 -61.88 Q -10.24 -61.672 -9.808 -61.496 L -8.288 -60.856 Q -7.68 -60.6 -7.176 -60.24 Q -6.672 -59.88 -6.376 -59.352 Q -6.08 -58.824 -6.08 -58.088 Q -6.08 -57.224 -6.52 -56.536 Q -6.96 -55.848 -7.776 -55.448 Q -8.592 -55.048 -9.728 -55.048 Z " fill="black" /><path d="M -0.16 -55.048 L -0.16 -55.048 Q -1.248 -55.048 -2.128 -55.48 Q -3.008 -55.912 -3.512 -56.912 Q -4.016 -57.912 -4.016 -59.592 L -4.016 -65.752 L -2.64 -65.752 L -2.64 -59.544 Q -2.64 -58.296 -2.312 -57.576 Q -1.984 -56.856 -1.424 -56.552 Q -0.864 -56.248 -0.16 -56.248 Q 0.56 -56.248 1.136 -56.552 Q 1.712 -56.856 2.048 -57.576 Q 2.384 -58.296 2.384 -59.544 L 2.384 -65.752 L 3.696 -65.752 L 3.696 -59.592 Q 3.696 -57.912 3.192 -56.912 Q 2.688 -55.912 1.816 -55.48 Q 0.944 -55.048 -0.16 -55.048 Z " fill="black" /><path d="M 6.576 -55.24 L 6.576 -55.24 L 6.576 -65.752 L 9.76 -65.752 Q 10.864 -65.752 11.696 -65.496 Q 12.528 -65.24 12.992 -64.68 Q 13.456 -64.12 13.456 -63.224 Q 13.456 -62.392 13.048 -61.76 Q 12.64 -61.128 11.888 -60.888 L 11.888 -60.824 Q 12.848 -60.648 13.464 -60.024 Q 14.08 -59.4 14.08 -58.28 Q 14.08 -57.272 13.56 -56.6 Q 13.04 -55.928 12.128 -55.584 Q 11.216 -55.24 10.016 -55.24 Z M 7.952 -56.328 L 7.952 -56.328 L 9.808 -56.328 Q 11.184 -56.328 11.96 -56.816 Q 12.736 -57.304 12.736 -58.328 Q 12.736 -59.32 11.992 -59.776 Q 11.248 -60.232 9.808 -60.232 L 7.952 -60.232 Z M 7.952 -61.272 L 7.952 -61.272 L 9.536 -61.272 Q 10.928 -61.272 11.52 -61.744 Q 12.112 -62.216 12.112 -63.016 Q 12.112 -63.912 11.464 -64.288 Q 10.816 -64.664 9.6 -64.664 L 7.952 -64.664 Z " fill="black" /><path d="M 19.184 -55.048 L 19.184 -55.048 Q 18.032 -55.048 17.08 -55.472 Q 16.128 -55.896 15.424 -56.6 L 16.24 -57.544 Q 16.816 -56.952 17.592 -56.6 Q 18.368 -56.248 19.248 -56.248 Q 20.272 -56.248 20.856 -56.712 Q 21.44 -57.176 21.44 -57.96 Q 21.44 -58.472 21.208 -58.792 Q 20.976 -59.112 20.568 -59.336 Q 20.16 -59.56 19.648 -59.768 L 18.112 -60.424 Q 17.648 -60.632 17.136 -60.96 Q 16.624 -61.288 16.28 -61.808 Q 15.936 -62.328 15.936 -63.096 Q 15.936 -63.928 16.376 -64.568 Q 16.816 -65.208 17.576 -65.568 Q 18.336 -65.928 19.296 -65.928 Q 20.272 -65.928 21.088 -65.568 Q 21.904 -65.208 22.48 -64.632 L 21.76 -63.752 Q 21.248 -64.216 20.648 -64.48 Q 20.048 -64.744 19.328 -64.744 Q 18.416 -64.744 17.872 -64.336 Q 17.328 -63.928 17.328 -63.224 Q 17.328 -62.728 17.592 -62.408 Q 17.856 -62.088 18.264 -61.88 Q 18.672 -61.672 19.104 -61.496 L 20.624 -60.856 Q 21.232 -60.6 21.736 -60.24 Q 22.24 -59.88 22.536 -59.352 Q 22.832 -58.824 22.832 -58.088 Q 22.832 -57.224 22.392 -56.536 Q 21.952 -55.848 21.136 -55.448 Q 20.32 -55.048 19.184 -55.048 Z " fill="black" /><path d="M 26.656 -63.304 L 26.656 -63.304 L 26.624 -66.536 L 28.048 -66.536 L 28.048 -66.248 L 27.264 -63.304 Z M 24.304 -63.304 L 24.304 -63.304 L 24.288 -66.536 L 25.696 -66.536 L 25.696 -66.248 L 24.912 -63.304 Z " fill="black" /></g></g></g><g><g><g><path d="M 67.031 -86.68 L 67.031 -86.68 L 67.319 -86.376 Q 66.503 -85.416 65.431 -84.8 Q 64.359 -84.184 62.839 -84.184 Q 61.399 -84.184 60.535 -84.72 Q 59.671 -85.256 59.295 -86.152 Q 58.919 -87.048 58.919 -88.104 Q 58.919 -89.784 59.431 -91.088 Q 59.943 -92.392 60.831 -93.28 Q 61.719 -94.168 62.839 -94.624 Q 63.959 -95.08 65.175 -95.08 Q 65.991 -95.08 66.447 -94.936 Q 66.903 -94.792 67.159 -94.64 Q 67.415 -94.488 67.607 -94.488 Q 67.799 -94.488 67.943 -94.648 Q 68.087 -94.808 68.279 -95.064 L 68.743 -95.064 L 67.991 -91.4 L 67.463 -91.4 Q 67.527 -93 66.871 -93.696 Q 66.215 -94.392 65.031 -94.392 Q 64.103 -94.392 63.287 -93.968 Q 62.471 -93.544 61.839 -92.768 Q 61.207 -91.992 60.847 -90.912 Q 60.487 -89.832 60.487 -88.504 Q 60.487 -86.904 61.247 -86.064 Q 62.007 -85.224 63.591 -85.224 Q 65.431 -85.224 67.031 -86.68 Z " fill="black" /><path d="M 73.07 -81 L 73.07 -81 L 69.273 -81 L 69.273 -81.403 Q 70.079 -81.403 70.342 -81.566 Q 70.606 -81.728 70.606 -82.154 L 70.606 -87.037 Q 70.606 -87.339 70.516 -87.474 Q 70.426 -87.608 70.191 -87.608 Q 70.012 -87.608 69.704 -87.558 Q 69.396 -87.507 69.172 -87.451 L 69.172 -87.899 L 71.244 -88.47 L 71.726 -88.47 L 71.726 -82.154 Q 71.726 -81.728 72.011 -81.566 Q 72.297 -81.403 73.07 -81.403 Z " fill="black" /><path d="M 79.409 -82.949 L 79.409 -82.949 L 79.028 -81 L 74.436 -81 L 74.436 -81.549 L 76.026 -83.162 Q 76.654 -83.789 77.062 -84.27 Q 77.471 -84.752 77.673 -85.239 Q 77.874 -85.726 77.874 -86.354 Q 77.874 -86.947 77.51 -87.334 Q 77.146 -87.72 76.486 -87.72 Q 75.881 -87.72 75.472 -87.479 Q 75.063 -87.238 74.75 -86.69 L 74.447 -86.835 Q 74.727 -87.619 75.315 -88.067 Q 75.903 -88.515 76.766 -88.515 Q 77.438 -88.515 77.953 -88.274 Q 78.468 -88.034 78.759 -87.586 Q 79.05 -87.138 79.05 -86.499 Q 79.05 -85.95 78.804 -85.469 Q 78.558 -84.987 78.104 -84.483 Q 77.65 -83.979 77.023 -83.363 L 75.623 -82.008 L 75.623 -81.93 L 76.497 -81.974 L 77.953 -81.974 Q 78.278 -81.974 78.451 -82.064 Q 78.625 -82.154 78.748 -82.372 Q 78.871 -82.59 79.017 -82.949 Z " fill="black" /></g></g></g><g><g><g><path d="M 139.104 -81.752 L 139.104 -81.752 L 139.008 -81.272 Q 138.576 -81.272 138.344 -81.192 Q 138.112 -81.112 137.936 -80.952 Q 137.792 -80.824 137.648 -80.64 Q 137.504 -80.456 137.376 -80.104 Q 137.248 -79.752 137.12 -79.128 L 135.488 -71.112 L 134.96 -71.112 L 130.256 -79.704 L 130.176 -79.704 L 128.928 -73.624 Q 128.768 -72.824 128.8 -72.416 Q 128.832 -72.008 129.128 -71.864 Q 129.424 -71.72 130.016 -71.72 L 129.92 -71.24 L 126.24 -71.24 L 126.336 -71.72 Q 126.96 -71.72 127.296 -71.856 Q 127.632 -71.992 127.808 -72.408 Q 127.984 -72.824 128.144 -73.624 L 129.568 -80.536 Q 129.296 -80.984 129.024 -81.128 Q 128.752 -81.272 128.24 -81.272 L 128.336 -81.752 L 130.848 -81.752 L 135.168 -73.88 L 135.248 -73.88 L 136.352 -79.208 Q 136.496 -79.928 136.504 -80.296 Q 136.512 -80.664 136.4 -80.872 Q 136.256 -81.112 136 -81.192 Q 135.744 -81.272 135.232 -81.272 L 135.328 -81.752 Z " fill="black" /><path d="M 146.528 -73.8 L 146.528 -73.8 L 146.016 -71.24 L 139.712 -71.24 L 139.712 -71.784 L 142.144 -74.216 Q 142.944 -75.032 143.472 -75.696 Q 144 -76.36 144.264 -77.032 Q 144.528 -77.704 144.528 -78.536 Q 144.528 -79.432 143.992 -79.968 Q 143.456 -80.504 142.528 -80.504 Q 141.744 -80.504 141.192 -80.168 Q 140.64 -79.832 140.192 -78.936 L 139.808 -79.096 Q 140.176 -80.264 140.976 -80.904 Q 141.776 -81.544 142.944 -81.544 Q 143.856 -81.544 144.544 -81.2 Q 145.232 -80.856 145.624 -80.24 Q 146.016 -79.624 146.016 -78.776 Q 146.016 -78.072 145.72 -77.424 Q 145.424 -76.776 144.84 -76.088 Q 144.256 -75.4 143.408 -74.536 L 141.296 -72.536 L 141.296 -72.456 L 142.416 -72.504 L 144.64 -72.504 Q 145.28 -72.504 145.536 -72.792 Q 145.792 -73.08 146.064 -73.8 Z " fill="black" /></g><g><path d="M 126.336 -63.304 L 126.336 -63.304 L 126.304 -66.536 L 127.728 -66.536 L 127.728 -66.248 L 126.944 -63.304 Z M 123.984 -63.304 L 123.984 -63.304 L 123.968 -66.536 L 125.376 -66.536 L 125.376 -66.248 L 124.592 -63.304 Z " fill="black" /><path d="M 134.016 -55.048 L 134.016 -55.048 Q 132.688 -55.048 131.624 -55.696 Q 130.56 -56.344 129.952 -57.56 Q 129.344 -58.776 129.344 -60.456 Q 129.344 -62.168 129.968 -63.392 Q 130.592 -64.616 131.656 -65.272 Q 132.72 -65.928 134.032 -65.928 Q 135.152 -65.928 135.872 -65.52 Q 136.592 -65.112 137.04 -64.632 L 136.288 -63.752 Q 135.36 -64.744 134.08 -64.744 Q 133.104 -64.744 132.352 -64.232 Q 131.6 -63.72 131.176 -62.768 Q 130.752 -61.816 130.752 -60.488 Q 130.752 -59.192 131.16 -58.24 Q 131.568 -57.288 132.312 -56.768 Q 133.056 -56.248 134.064 -56.248 Q 134.832 -56.248 135.44 -56.56 Q 136.048 -56.872 136.56 -57.416 L 137.296 -56.568 Q 136.656 -55.848 135.856 -55.448 Q 135.056 -55.048 134.016 -55.048 Z " fill="black" /><path d="M 142.832 -55.24 L 142.832 -55.24 L 141.504 -55.24 L 141.504 -63.704 L 139.44 -63.704 L 139.44 -64.568 Q 140.288 -64.696 140.832 -64.88 Q 141.376 -65.064 141.824 -65.32 L 142.832 -65.32 Z " fill="black" /><path d="M 149.152 -63.304 L 149.152 -63.304 L 149.12 -66.536 L 150.544 -66.536 L 150.544 -66.248 L 149.76 -63.304 Z M 146.8 -63.304 L 146.8 -63.304 L 146.784 -66.536 L 148.192 -66.536 L 148.192 -66.248 L 147.408 -63.304 Z " fill="black" /></g></g></g><g><g><g><path d="M 112.222 -16.64 L 112.222 -16.64 L 112.51 -16.336 Q 111.694 -15.376 110.622 -14.76 Q 109.55 -14.144 108.03 -14.144 Q 106.59 -14.144 105.726 -14.68 Q 104.862 -15.216 104.486 -16.112 Q 104.11 -17.008 104.11 -18.064 Q 104.11 -19.744 104.622 -21.048 Q 105.134 -22.352 106.022 -23.24 Q 106.91 -24.128 108.03 -24.584 Q 109.15 -25.04 110.366 -25.04 Q 111.182 -25.04 111.638 -24.896 Q 112.094 -24.752 112.35 -24.6 Q 112.606 -24.448 112.798 -24.448 Q 112.99 -24.448 113.134 -24.608 Q 113.278 -24.768 113.47 -25.024 L 113.934 -25.024 L 113.182 -21.36 L 112.654 -21.36 Q 112.718 -22.96 112.062 -23.656 Q 111.406 -24.352 110.222 -24.352 Q 109.294 -24.352 108.478 -23.928 Q 107.662 -23.504 107.03 -22.728 Q 106.398 -21.952 106.038 -20.872 Q 105.678 -19.792 105.678 -18.464 Q 105.678 -16.864 106.438 -16.024 Q 107.198 -15.184 108.782 -15.184 Q 110.622 -15.184 112.222 -16.64 Z " fill="black" /><path d="M 118.899 -12.909 L 118.899 -12.909 L 118.518 -10.96 L 113.926 -10.96 L 113.926 -11.509 L 115.517 -13.122 Q 116.144 -13.749 116.553 -14.23 Q 116.962 -14.712 117.163 -15.199 Q 117.365 -15.686 117.365 -16.314 Q 117.365 -16.907 117.001 -17.294 Q 116.637 -17.68 115.976 -17.68 Q 115.371 -17.68 114.962 -17.439 Q 114.554 -17.198 114.24 -16.65 L 113.938 -16.795 Q 114.218 -17.579 114.806 -18.027 Q 115.394 -18.475 116.256 -18.475 Q 116.928 -18.475 117.443 -18.234 Q 117.958 -17.994 118.25 -17.546 Q 118.541 -17.098 118.541 -16.459 Q 118.541 -15.91 118.294 -15.429 Q 118.048 -14.947 117.594 -14.443 Q 117.141 -13.939 116.514 -13.323 L 115.114 -11.968 L 115.114 -11.89 L 115.987 -11.934 L 117.443 -11.934 Q 117.768 -11.934 117.942 -12.024 Q 118.115 -12.114 118.238 -12.332 Q 118.362 -12.55 118.507 -12.909 Z " fill="black" /><path d="M 124.768 -12.909 L 124.768 -12.909 L 124.387 -10.96 L 119.795 -10.96 L 119.795 -11.509 L 121.386 -13.122 Q 122.013 -13.749 122.422 -14.23 Q 122.83 -14.712 123.032 -15.199 Q 123.234 -15.686 123.234 -16.314 Q 123.234 -16.907 122.87 -17.294 Q 122.506 -17.68 121.845 -17.68 Q 121.24 -17.68 120.831 -17.439 Q 120.422 -17.198 120.109 -16.65 L 119.806 -16.795 Q 120.086 -17.579 120.674 -18.027 Q 121.262 -18.475 122.125 -18.475 Q 122.797 -18.475 123.312 -18.234 Q 123.827 -17.994 124.118 -17.546 Q 124.41 -17.098 124.41 -16.459 Q 124.41 -15.91 124.163 -15.429 Q 123.917 -14.947 123.463 -14.443 Q 123.01 -13.939 122.382 -13.323 L 120.982 -11.968 L 120.982 -11.89 L 121.856 -11.934 L 123.312 -11.934 Q 123.637 -11.934 123.81 -12.024 Q 123.984 -12.114 124.107 -12.332 Q 124.23 -12.55 124.376 -12.909 Z " fill="black" /></g></g></g><g><g><g><path d="M 203.747 -86.826 L 203.747 -86.826 L 204.035 -86.522 Q 203.219 -85.562 202.147 -84.946 Q 201.075 -84.33 199.555 -84.33 Q 198.115 -84.33 197.251 -84.866 Q 196.387 -85.402 196.011 -86.298 Q 195.635 -87.194 195.635 -88.25 Q 195.635 -89.93 196.147 -91.234 Q 196.659 -92.538 197.547 -93.426 Q 198.435 -94.314 199.555 -94.77 Q 200.675 -95.226 201.891 -95.226 Q 202.707 -95.226 203.163 -95.082 Q 203.619 -94.938 203.875 -94.786 Q 204.131 -94.634 204.323 -94.634 Q 204.515 -94.634 204.659 -94.794 Q 204.803 -94.954 204.995 -95.21 L 205.459 -95.21 L 204.707 -91.546 L 204.179 -91.546 Q 204.243 -93.146 203.587 -93.842 Q 202.931 -94.538 201.747 -94.538 Q 200.819 -94.538 200.003 -94.114 Q 199.187 -93.69 198.555 -92.914 Q 197.923 -92.138 197.563 -91.058 Q 197.203 -89.978 197.203 -88.65 Q 197.203 -87.05 197.963 -86.21 Q 198.723 -85.37 200.307 -85.37 Q 202.147 -85.37 203.747 -86.826 Z " fill="black" /><path d="M 210.424 -83.094 L 210.424 -83.094 L 210.043 -81.146 L 205.451 -81.146 L 205.451 -81.694 L 207.042 -83.307 Q 207.669 -83.934 208.078 -84.416 Q 208.486 -84.898 208.688 -85.385 Q 208.89 -85.872 208.89 -86.499 Q 208.89 -87.093 208.526 -87.479 Q 208.162 -87.866 207.501 -87.866 Q 206.896 -87.866 206.487 -87.625 Q 206.078 -87.384 205.765 -86.835 L 205.462 -86.981 Q 205.742 -87.765 206.33 -88.213 Q 206.918 -88.661 207.781 -88.661 Q 208.453 -88.661 208.968 -88.42 Q 209.483 -88.179 209.774 -87.731 Q 210.066 -87.283 210.066 -86.645 Q 210.066 -86.096 209.819 -85.614 Q 209.573 -85.133 209.119 -84.629 Q 208.666 -84.125 208.038 -83.509 L 206.638 -82.154 L 206.638 -82.075 L 207.512 -82.12 L 208.968 -82.12 Q 209.293 -82.12 209.466 -82.21 Q 209.64 -82.299 209.763 -82.518 Q 209.886 -82.736 210.032 -83.094 Z " fill="black" /><path d="M 211.757 -86.97 L 211.757 -86.97 L 211.432 -87.126 Q 211.768 -87.888 212.322 -88.274 Q 212.877 -88.661 213.571 -88.661 Q 214.467 -88.661 215.016 -88.224 Q 215.565 -87.787 215.565 -87.093 Q 215.565 -86.488 215.195 -86.118 Q 214.826 -85.749 214.277 -85.39 L 214.277 -85.334 Q 214.747 -85.211 215.145 -84.965 Q 215.542 -84.718 215.778 -84.332 Q 216.013 -83.946 216.013 -83.397 Q 216.013 -82.781 215.744 -82.327 Q 215.475 -81.874 215.016 -81.577 Q 214.557 -81.28 213.969 -81.14 Q 213.381 -81 212.742 -81 Q 212.194 -81 211.908 -81.095 Q 211.622 -81.19 211.516 -81.347 Q 211.41 -81.504 211.41 -81.661 Q 211.41 -81.851 211.522 -82.036 Q 211.634 -82.221 211.902 -82.221 Q 212.014 -82.221 212.132 -82.159 Q 212.25 -82.098 212.563 -81.918 Q 212.821 -81.795 212.972 -81.728 Q 213.123 -81.661 213.241 -81.638 Q 213.358 -81.616 213.515 -81.616 Q 213.851 -81.616 214.182 -81.739 Q 214.512 -81.862 214.736 -82.182 Q 214.96 -82.501 214.96 -83.083 Q 214.96 -83.598 214.674 -83.968 Q 214.389 -84.338 213.907 -84.545 Q 213.426 -84.752 212.843 -84.752 L 212.597 -84.752 L 212.597 -85.278 L 212.832 -85.278 Q 213.235 -85.278 213.616 -85.463 Q 213.997 -85.648 214.243 -85.99 Q 214.49 -86.331 214.49 -86.802 Q 214.49 -87.328 214.148 -87.597 Q 213.806 -87.866 213.28 -87.866 Q 212.306 -87.866 211.757 -86.97 Z " fill="black" /></g></g></g><g><g><g><path d="M 275.904 -81.752 L 275.904 -81.752 L 275.808 -81.272 Q 275.376 -81.272 275.144 -81.192 Q 274.912 -81.112 274.736 -80.952 Q 274.592 -80.824 274.448 -80.64 Q 274.304 -80.456 274.176 -80.104 Q 274.048 -79.752 273.92 -79.128 L 272.288 -71.112 L 271.76 -71.112 L 267.056 -79.704 L 266.976 -79.704 L 265.728 -73.624 Q 265.568 -72.824 265.6 -72.416 Q 265.632 -72.008 265.928 -71.864 Q 266.224 -71.72 266.816 -71.72 L 266.72 -71.24 L 263.04 -71.24 L 263.136 -71.72 Q 263.76 -71.72 264.096 -71.856 Q 264.432 -71.992 264.608 -72.408 Q 264.784 -72.824 264.944 -73.624 L 266.368 -80.536 Q 266.096 -80.984 265.824 -81.128 Q 265.552 -81.272 265.04 -81.272 L 265.136 -81.752 L 267.648 -81.752 L 271.968 -73.88 L 272.048 -73.88 L 273.152 -79.208 Q 273.296 -79.928 273.304 -80.296 Q 273.312 -80.664 273.2 -80.872 Q 273.056 -81.112 272.8 -81.192 Q 272.544 -81.272 272.032 -81.272 L 272.128 -81.752 Z " fill="black" /><path d="M 277.28 -79.208 L 277.28 -79.208 L 276.912 -79.416 Q 277.824 -81.544 279.808 -81.544 Q 281.04 -81.544 281.712 -80.928 Q 282.384 -80.312 282.384 -79.4 Q 282.384 -78.568 281.896 -78.056 Q 281.408 -77.544 280.656 -77.064 L 280.656 -77.016 Q 281.296 -76.824 281.832 -76.464 Q 282.368 -76.104 282.688 -75.584 Q 283.008 -75.064 283.008 -74.344 Q 283.008 -73.256 282.4 -72.512 Q 281.792 -71.768 280.8 -71.4 Q 279.808 -71.032 278.64 -71.032 Q 277.92 -71.032 277.536 -71.168 Q 277.152 -71.304 277 -71.504 Q 276.848 -71.704 276.848 -71.912 Q 276.848 -72.168 277.008 -72.392 Q 277.168 -72.616 277.472 -72.616 Q 277.664 -72.616 277.832 -72.544 Q 278 -72.472 278.416 -72.248 Q 278.928 -71.992 279.176 -71.912 Q 279.424 -71.832 279.712 -71.832 Q 280.224 -71.832 280.672 -72.016 Q 281.12 -72.2 281.408 -72.64 Q 281.696 -73.08 281.696 -73.864 Q 281.696 -74.584 281.296 -75.112 Q 280.896 -75.64 280.232 -75.936 Q 279.568 -76.232 278.8 -76.232 L 278.48 -76.232 L 278.48 -76.84 L 278.784 -76.84 Q 279.328 -76.84 279.84 -77.112 Q 280.352 -77.384 280.68 -77.88 Q 281.008 -78.376 281.008 -79.016 Q 281.008 -79.72 280.568 -80.112 Q 280.128 -80.504 279.376 -80.504 Q 278.656 -80.504 278.176 -80.176 Q 277.696 -79.848 277.28 -79.208 Z " fill="black" /></g><g><path d="M 263.136 -63.304 L 263.136 -63.304 L 263.104 -66.536 L 264.528 -66.536 L 264.528 -66.248 L 263.744 -63.304 Z M 260.784 -63.304 L 260.784 -63.304 L 260.768 -66.536 L 262.176 -66.536 L 262.176 -66.248 L 261.392 -63.304 Z " fill="black" /><path d="M 270.816 -55.048 L 270.816 -55.048 Q 269.488 -55.048 268.424 -55.696 Q 267.36 -56.344 266.752 -57.56 Q 266.144 -58.776 266.144 -60.456 Q 266.144 -62.168 266.768 -63.392 Q 267.392 -64.616 268.456 -65.272 Q 269.52 -65.928 270.832 -65.928 Q 271.952 -65.928 272.672 -65.52 Q 273.392 -65.112 273.84 -64.632 L 273.088 -63.752 Q 272.16 -64.744 270.88 -64.744 Q 269.904 -64.744 269.152 -64.232 Q 268.4 -63.72 267.976 -62.768 Q 267.552 -61.816 267.552 -60.488 Q 267.552 -59.192 267.96 -58.24 Q 268.368 -57.288 269.112 -56.768 Q 269.856 -56.248 270.864 -56.248 Q 271.632 -56.248 272.24 -56.56 Q 272.848 -56.872 273.36 -57.416 L 274.096 -56.568 Q 273.456 -55.848 272.656 -55.448 Q 271.856 -55.048 270.816 -55.048 Z " fill="black" /><path d="M 278.688 -55.048 L 278.688 -55.048 Q 277.136 -55.048 276.248 -56.416 Q 275.36 -57.784 275.36 -60.312 Q 275.36 -62.856 276.248 -64.176 Q 277.136 -65.496 278.688 -65.496 Q 280.256 -65.496 281.144 -64.168 Q 282.032 -62.84 282.032 -60.312 Q 282.032 -57.784 281.144 -56.416 Q 280.256 -55.048 278.688 -55.048 Z M 278.688 -56.136 L 278.688 -56.136 Q 279.6 -56.136 280.16 -57.12 Q 280.72 -58.104 280.72 -60.312 Q 280.72 -62.52 280.16 -63.472 Q 279.6 -64.424 278.688 -64.424 Q 277.792 -64.424 277.224 -63.472 Q 276.656 -62.52 276.656 -60.312 Q 276.656 -58.104 277.224 -57.12 Q 277.792 -56.136 278.688 -56.136 Z " fill="black" /><path d="M 285.952 -63.304 L 285.952 -63.304 L 285.92 -66.536 L 287.344 -66.536 L 287.344 -66.248 L 286.56 -63.304 Z M 283.6 -63.304 L 283.6 -63.304 L 283.584 -66.536 L 284.992 -66.536 L 284.992 -66.248 L 284.208 -63.304 Z " fill="black" /></g></g></g><g><g><g><path d="M 249.022 -16.713 L 249.022 -16.713 L 249.31 -16.409 Q 248.494 -15.449 247.422 -14.833 Q 246.35 -14.217 244.83 -14.217 Q 243.39 -14.217 242.526 -14.753 Q 241.662 -15.289 241.286 -16.185 Q 240.91 -17.081 240.91 -18.137 Q 240.91 -19.817 241.422 -21.121 Q 241.934 -22.425 242.822 -23.313 Q 243.71 -24.201 244.83 -24.657 Q 245.95 -25.113 247.166 -25.113 Q 247.982 -25.113 248.438 -24.969 Q 248.894 -24.825 249.15 -24.673 Q 249.406 -24.521 249.598 -24.521 Q 249.79 -24.521 249.934 -24.681 Q 250.078 -24.841 250.27 -25.097 L 250.734 -25.097 L 249.982 -21.433 L 249.454 -21.433 Q 249.518 -23.033 248.862 -23.729 Q 248.206 -24.425 247.022 -24.425 Q 246.094 -24.425 245.278 -24.001 Q 244.462 -23.577 243.83 -22.801 Q 243.198 -22.025 242.838 -20.945 Q 242.478 -19.865 242.478 -18.537 Q 242.478 -16.937 243.238 -16.097 Q 243.998 -15.257 245.582 -15.257 Q 247.422 -15.257 249.022 -16.713 Z " fill="black" /><path d="M 251.163 -16.857 L 251.163 -16.857 L 250.838 -17.014 Q 251.174 -17.775 251.729 -18.162 Q 252.283 -18.548 252.978 -18.548 Q 253.874 -18.548 254.422 -18.111 Q 254.971 -17.674 254.971 -16.98 Q 254.971 -16.375 254.602 -16.006 Q 254.232 -15.636 253.683 -15.278 L 253.683 -15.222 Q 254.154 -15.098 254.551 -14.852 Q 254.949 -14.606 255.184 -14.219 Q 255.419 -13.833 255.419 -13.284 Q 255.419 -12.668 255.15 -12.214 Q 254.882 -11.761 254.422 -11.464 Q 253.963 -11.167 253.375 -11.027 Q 252.787 -10.887 252.149 -10.887 Q 251.6 -10.887 251.314 -10.982 Q 251.029 -11.078 250.922 -11.234 Q 250.816 -11.391 250.816 -11.548 Q 250.816 -11.738 250.928 -11.923 Q 251.04 -12.108 251.309 -12.108 Q 251.421 -12.108 251.538 -12.046 Q 251.656 -11.985 251.97 -11.806 Q 252.227 -11.682 252.378 -11.615 Q 252.53 -11.548 252.647 -11.526 Q 252.765 -11.503 252.922 -11.503 Q 253.258 -11.503 253.588 -11.626 Q 253.918 -11.75 254.142 -12.069 Q 254.366 -12.388 254.366 -12.97 Q 254.366 -13.486 254.081 -13.855 Q 253.795 -14.225 253.314 -14.432 Q 252.832 -14.639 252.25 -14.639 L 252.003 -14.639 L 252.003 -15.166 L 252.238 -15.166 Q 252.642 -15.166 253.022 -15.35 Q 253.403 -15.535 253.65 -15.877 Q 253.896 -16.218 253.896 -16.689 Q 253.896 -17.215 253.554 -17.484 Q 253.213 -17.753 252.686 -17.753 Q 251.712 -17.753 251.163 -16.857 Z " fill="black" /><path d="M 257.032 -16.857 L 257.032 -16.857 L 256.707 -17.014 Q 257.043 -17.775 257.598 -18.162 Q 258.152 -18.548 258.846 -18.548 Q 259.742 -18.548 260.291 -18.111 Q 260.84 -17.674 260.84 -16.98 Q 260.84 -16.375 260.47 -16.006 Q 260.101 -15.636 259.552 -15.278 L 259.552 -15.222 Q 260.022 -15.098 260.42 -14.852 Q 260.818 -14.606 261.053 -14.219 Q 261.288 -13.833 261.288 -13.284 Q 261.288 -12.668 261.019 -12.214 Q 260.75 -11.761 260.291 -11.464 Q 259.832 -11.167 259.244 -11.027 Q 258.656 -10.887 258.018 -10.887 Q 257.469 -10.887 257.183 -10.982 Q 256.898 -11.078 256.791 -11.234 Q 256.685 -11.391 256.685 -11.548 Q 256.685 -11.738 256.797 -11.923 Q 256.909 -12.108 257.178 -12.108 Q 257.29 -12.108 257.407 -12.046 Q 257.525 -11.985 257.838 -11.806 Q 258.096 -11.682 258.247 -11.615 Q 258.398 -11.548 258.516 -11.526 Q 258.634 -11.503 258.79 -11.503 Q 259.126 -11.503 259.457 -11.626 Q 259.787 -11.75 260.011 -12.069 Q 260.235 -12.388 260.235 -12.97 Q 260.235 -13.486 259.95 -13.855 Q 259.664 -14.225 259.182 -14.432 Q 258.701 -14.639 258.118 -14.639 L 257.872 -14.639 L 257.872 -15.166 L 258.107 -15.166 Q 258.51 -15.166 258.891 -15.35 Q 259.272 -15.535 259.518 -15.877 Q 259.765 -16.218 259.765 -16.689 Q 259.765 -17.215 259.423 -17.484 Q 259.082 -17.753 258.555 -17.753 Q 257.581 -17.753 257.032 -16.857 Z " fill="black" /></g></g></g><g><g><g><path d="M 135.431 -155.226 L 135.431 -155.226 L 135.719 -154.922 Q 134.903 -153.962 133.831 -153.346 Q 132.759 -152.73 131.239 -152.73 Q 129.799 -152.73 128.935 -153.266 Q 128.071 -153.802 127.695 -154.698 Q 127.319 -155.594 127.319 -156.65 Q 127.319 -158.33 127.831 -159.634 Q 128.343 -160.938 129.231 -161.826 Q 130.119 -162.714 131.239 -163.17 Q 132.359 -163.626 133.575 -163.626 Q 134.391 -163.626 134.847 -163.482 Q 135.303 -163.338 135.559 -163.186 Q 135.815 -163.034 136.007 -163.034 Q 136.199 -163.034 136.343 -163.194 Q 136.487 -163.354 136.679 -163.61 L 137.143 -163.61 L 136.391 -159.946 L 135.863 -159.946 Q 135.927 -161.546 135.271 -162.242 Q 134.615 -162.938 133.431 -162.938 Q 132.503 -162.938 131.687 -162.514 Q 130.871 -162.09 130.239 -161.314 Q 129.607 -160.538 129.247 -159.458 Q 128.887 -158.378 128.887 -157.05 Q 128.887 -155.45 129.647 -154.61 Q 130.407 -153.77 131.991 -153.77 Q 133.831 -153.77 135.431 -155.226 Z " fill="black" /><path d="M 141.47 -149.546 L 141.47 -149.546 L 137.673 -149.546 L 137.673 -149.949 Q 138.479 -149.949 138.742 -150.111 Q 139.006 -150.274 139.006 -150.699 L 139.006 -155.582 Q 139.006 -155.885 138.916 -156.019 Q 138.826 -156.154 138.591 -156.154 Q 138.412 -156.154 138.104 -156.103 Q 137.796 -156.053 137.572 -155.997 L 137.572 -156.445 L 139.644 -157.016 L 140.126 -157.016 L 140.126 -150.699 Q 140.126 -150.274 140.411 -150.111 Q 140.697 -149.949 141.47 -149.949 Z " fill="black" /><path d="M 143.273 -155.37 L 143.273 -155.37 L 142.948 -155.526 Q 143.284 -156.288 143.838 -156.674 Q 144.393 -157.061 145.087 -157.061 Q 145.983 -157.061 146.532 -156.624 Q 147.081 -156.187 147.081 -155.493 Q 147.081 -154.888 146.711 -154.518 Q 146.342 -154.149 145.793 -153.79 L 145.793 -153.734 Q 146.263 -153.611 146.661 -153.365 Q 147.058 -153.118 147.294 -152.732 Q 147.529 -152.346 147.529 -151.797 Q 147.529 -151.181 147.26 -150.727 Q 146.991 -150.274 146.532 -149.977 Q 146.073 -149.68 145.485 -149.54 Q 144.897 -149.4 144.258 -149.4 Q 143.71 -149.4 143.424 -149.495 Q 143.138 -149.59 143.032 -149.747 Q 142.926 -149.904 142.926 -150.061 Q 142.926 -150.251 143.038 -150.436 Q 143.15 -150.621 143.418 -150.621 Q 143.53 -150.621 143.648 -150.559 Q 143.766 -150.498 144.079 -150.318 Q 144.337 -150.195 144.488 -150.128 Q 144.639 -150.061 144.757 -150.038 Q 144.874 -150.016 145.031 -150.016 Q 145.367 -150.016 145.698 -150.139 Q 146.028 -150.262 146.252 -150.582 Q 146.476 -150.901 146.476 -151.483 Q 146.476 -151.998 146.19 -152.368 Q 145.905 -152.738 145.423 -152.945 Q 144.942 -153.152 144.359 -153.152 L 144.113 -153.152 L 144.113 -153.678 L 144.348 -153.678 Q 144.751 -153.678 145.132 -153.863 Q 145.513 -154.048 145.759 -154.39 Q 146.006 -154.731 146.006 -155.202 Q 146.006 -155.728 145.664 -155.997 Q 145.322 -156.266 144.796 -156.266 Q 143.822 -156.266 143.273 -155.37 Z " fill="black" /></g></g></g></svg>