<svg xmlns="http://www.w3.org/2000/svg" xml:lang="en" height="139.064pt" width="424.152pt" viewBox="-50.55199999999999 -100.62400000000001 424.152 139.064"><circle cx="2.204364238465236e-15" cy="-36.0" r="18.0" style="stroke:black;fill:none;stroke-width:2.0;stroke-dasharray:-;" /><circle cx="360.0" cy="-72.0" r="0.0036000000000000003" style="stroke:black;fill:none;stroke-width:2.0;stroke-dasharray:-;" /><path d="M 0.0,-0.0 L 1.102182119232618e-15,-18.0 L 1.102182119232618e-15,-18.0 M 3.3065463576978533e-15,-54.0 L 3.3065463576978533e-15,-54.0 L 4.408728476930472e-15,-72.0" style="stroke:black;fill:none;stroke-width:2.0;stroke-dasharray:-;stroke-linecap:round;stroke-linejoin:round;" /><path d="M 1.6532731788489267e-15,-27.0 L 2.204364238465236e-15,-36.0" style="stroke:black;fill:none;stroke-width:2.0;stroke-dasharray:-;stroke-linecap:round;stroke-linejoin:round;" /><path d="M 2.6329906181668096e-15 -43.0 L 2.700000000000002 -36.0 L -2.6999999999999975 -36.0 Z" style="stroke:black;fill:black;stroke-linecap:butt;stroke-linejoin:miter;" /><path d="M 4.408728476930472e-15,-72.0 L 36.00000000000001,-72.0 L 72.0,-72.0" style="stroke:black;fill:none;stroke-width:2.0;stroke-dasharray:-;stroke-linecap:round;stroke-linejoin:round;" /><path d="M 72.0,-72.0 L 72.0,-54.0 L 81.0,-50.99999999999999 L 63.0,-45.0 L 81.0,-39.00000000000001 L 62.99999999999999,-33.0 L 81.0,-27.0 L 62.99999999999999,-21.000000000000007 L 71.99999999999999,-18.0 L 71.99999999999999,-0.0" style="stroke:black;fill:none;stroke-width:2.0;stroke-dasharray:-;stroke-linecap:round;stroke-linejoin:round;" /><path d="M 71.99999999999999,-0.0 L 35.999999999999986,-4.408728476930472e-15 L -1.5987211554602254e-14,-8.817456953860943e-15" style="stroke:black;fill:none;stroke-width:2.0;stroke-dasharray:-;stroke-linecap:round;stroke-linejoin:round;" /><path d="M 72.0,-72.0 L 108.0,-72.0 L 144.0,-72.0" style="stroke:black;fill:none;stroke-width:2.0;stroke-dasharray:-;stroke-linecap:round;stroke-linejoin:round;" /><path d="M 144.0,-72.0 L 144.0,-39.239999999999995 M 153.0,-39.239999999999995 L 135.0,-39.239999999999995 M 153.0,-32.76 L 135.0,-32.76 M 144.0,-32.76 L 143.99999999999997,-0.0" style="stroke:black;fill:none;stroke-width:2.0;stroke-dasharray:-;stroke-linecap:round;stroke-linejoin:round;" /><path d="M 143.99999999999997,-0.0 L 107.99999999999999,-4.408728476930472e-15 L 71.99999999999999,-8.817456953860943e-15" style="stroke:black;fill:none;stroke-width:2.0;stroke-dasharray:-;stroke-linecap:round;stroke-linejoin:round;" /><path d="M 144.0,-72.0 L 180.0,-72.0 L 183.0,-81.0 L 189.0,-63.0 L 194.99999999999997,-81.0 L 201.0,-63.0 L 207.0,-81.0 L 212.99999999999997,-63.0 L 216.0,-72.0 L 252.0,-72.0" style="stroke:black;fill:none;stroke-width:2.0;stroke-dasharray:-;stroke-linecap:round;stroke-linejoin:round;" /><path d="M 252.0,-72.0 L 252.0,-39.239999999999995 M 261.0,-39.239999999999995 L 243.0,-39.239999999999995 M 261.0,-32.76 L 243.0,-32.76 M 252.0,-32.76 L 252.0,-0.0" style="stroke:black;fill:none;stroke-width:2.0;stroke-dasharray:-;stroke-linecap:round;stroke-linejoin:round;" /><path d="M 252.0,-0.0 L 198.0,-6.613092715395707e-15 L 144.0,-1.3226185430791413e-14" style="stroke:black;fill:none;stroke-width:2.0;stroke-dasharray:-;stroke-linecap:round;stroke-linejoin:round;" /><path d="M 252.0,-0.0 L 252.0,5.3999999999999995 L 252.0,10.799999999999999" style="stroke:black;fill:none;stroke-width:2.0;stroke-dasharray:-;stroke-linecap:round;stroke-linejoin:round;" /><path d="M 252.0,10.799999999999999 L 252.0,25.2 L 243.0,25.2 L 261.0,25.2 M 245.70000000000002,29.520000000000003 L 258.3,29.520000000000003 M 250.20000000000002,33.839999999999996 L 253.79999999999998,33.839999999999996" style="stroke:black;fill:none;stroke-width:2.0;stroke-dasharray:-;stroke-linecap:round;stroke-linejoin:round;" /><path d="M 252.0,-72.0 L 288.0,-72.0 L 291.0,-81.0 L 297.0,-63.0 L 303.0,-81.0 L 309.0,-63.0 L 315.0,-81.0 L 321.0,-63.0 L 324.0,-72.0 L 360.0,-72.0" style="stroke:black;fill:none;stroke-width:2.0;stroke-dasharray:-;stroke-linecap:round;stroke-linejoin:round;" /><path d="M 360.0,-72.0 L 360.0,-39.239999999999995 M 369.0,-39.239999999999995 L 351.0,-39.239999999999995 M 369.0,-32.76 L 351.0,-32.76 M 360.0,-32.76 L 360.0,-0.0" style="stroke:black;fill:none;stroke-width:2.0;stroke-dasharray:-;stroke-linecap:round;stroke-linejoin:round;" /><path d="M 360.0,-0.0 L 306.0,-6.613092715395707e-15 L 252.0,-1.3226185430791413e-14" style="stroke:black;fill:none;stroke-width:2.0;stroke-dasharray:-;stroke-linecap:round;stroke-linejoin:round;" /><g><g><g><path d="M -43.552 -33.648 L -43.552 -33.648 L -42.24 -40.08 Q -42.112 -40.704 -42.104 -41.056 Q -42.096 -41.408 -42.392 -41.56 Q -42.688 -41.712 -43.456 -41.712 L -43.36 -42.192 L -38.928 -42.192 L -39.008 -41.712 Q -39.664 -41.712 -40.016 -41.568 Q -40.368 -41.424 -40.536 -41.064 Q -40.704 -40.704 -40.832 -40.08 L -42.048 -34.128 Q -42.256 -33.072 -42.664 -32.496 Q -43.072 -31.92 -43.656 -31.704 Q -44.24 -31.488 -44.992 -31.488 Q -45.776 -31.488 -46.288 -31.792 Q -46.8 -32.096 -46.8 -32.704 Q -46.8 -33.52 -46.08 -33.52 Q -45.712 -33.52 -45.536 -33.296 Q -45.36 -33.072 -45.256 -32.776 Q -45.152 -32.48 -45.024 -32.256 Q -44.896 -32.032 -44.624 -32.032 Q -44.128 -32.032 -43.92 -32.424 Q -43.712 -32.816 -43.552 -33.648 Z " fill="black" /><path d="M -38.208 -36 L -38.208 -36 Q -38.208 -38.672 -37.048 -40.56 Q -35.888 -42.448 -33.952 -43.456 L -33.696 -43.04 Q -35.44 -41.856 -36.168 -40.152 Q -36.896 -38.448 -36.896 -36 Q -36.896 -33.552 -36.168 -31.848 Q -35.44 -30.144 -33.696 -28.96 L -33.952 -28.544 Q -35.888 -29.552 -37.048 -31.44 Q -38.208 -33.328 -38.208 -36 Z " fill="black" /><path d="M -28.144 -39.152 L -28.144 -39.152 L -28.272 -38.528 L -29.888 -38.528 L -30.832 -33.76 Q -30.832 -33.76 -30.888 -33.464 Q -30.944 -33.168 -30.944 -32.96 Q -30.944 -32.832 -30.888 -32.728 Q -30.832 -32.624 -30.672 -32.624 Q -30.32 -32.624 -30.024 -32.832 Q -29.728 -33.04 -29.312 -33.584 L -28.992 -33.344 Q -29.216 -33.04 -29.536 -32.608 Q -29.856 -32.176 -30.304 -31.856 Q -30.752 -31.536 -31.392 -31.536 Q -31.888 -31.536 -32.128 -31.776 Q -32.368 -32.016 -32.368 -32.384 Q -32.368 -32.592 -32.32 -32.888 Q -32.272 -33.184 -32.256 -33.296 L -31.168 -38.528 L -32.08 -38.528 L -32.016 -38.864 Q -31.504 -39.136 -31.16 -39.392 Q -30.816 -39.648 -30.504 -40.064 Q -30.192 -40.48 -29.792 -41.168 L -29.312 -41.168 L -29.76 -39.152 Z " fill="black" /><path d="M -22.816 -36 L -22.816 -36 Q -22.816 -33.328 -23.976 -31.44 Q -25.136 -29.552 -27.072 -28.544 L -27.328 -28.96 Q -25.568 -30.144 -24.848 -31.848 Q -24.128 -33.552 -24.128 -36 Q -24.128 -38.448 -24.848 -40.152 Q -25.568 -41.856 -27.328 -43.04 L -27.072 -43.456 Q -25.136 -42.448 -23.976 -40.56 Q -22.816 -38.672 -22.816 -36 Z " fill="black" /></g></g></g><circle cx="72.0" cy="-72.0" r="2.6999999999999997" style="stroke:black;fill:black;stroke-width:2.0;stroke-dasharray:-;" /><g><g><g><path d="M 52.334 -41.44 L 52.334 -41.44 L 52.238 -40.624 L 50.846 -40.784 L 50.846 -40.736 Q 51.118 -40.432 51.27 -39.976 Q 51.422 -39.52 51.422 -39.104 Q 51.422 -38.384 51.134 -37.896 Q 50.846 -37.408 50.382 -37.112 Q 49.918 -36.816 49.358 -36.664 Q 48.798 -36.512 48.27 -36.464 Q 47.63 -36.4 47.366 -36.192 Q 47.102 -35.984 47.102 -35.76 Q 47.102 -35.472 47.422 -35.32 Q 47.742 -35.168 48.246 -35.072 Q 48.75 -34.976 49.326 -34.856 Q 49.902 -34.736 50.406 -34.528 Q 50.91 -34.32 51.23 -33.944 Q 51.55 -33.568 51.55 -32.944 Q 51.55 -32.256 51.102 -31.672 Q 50.654 -31.088 49.774 -30.728 Q 48.894 -30.368 47.614 -30.368 Q 46.462 -30.368 45.774 -30.648 Q 45.086 -30.928 44.782 -31.368 Q 44.478 -31.808 44.478 -32.288 Q 44.478 -33.056 45.07 -33.528 Q 45.662 -34 46.414 -34.24 L 46.414 -34.304 Q 46.206 -34.432 46.022 -34.664 Q 45.838 -34.896 45.838 -35.264 Q 45.838 -35.664 46.046 -35.904 Q 46.254 -36.144 46.582 -36.296 Q 46.91 -36.448 47.23 -36.56 L 47.23 -36.656 Q 46.606 -36.928 46.142 -37.424 Q 45.678 -37.92 45.678 -38.832 Q 45.678 -39.664 46.078 -40.296 Q 46.478 -40.928 47.174 -41.28 Q 47.87 -41.632 48.734 -41.632 Q 49.31 -41.632 49.606 -41.576 Q 49.902 -41.52 50.19 -41.44 Z M 50.398 -32.352 L 50.398 -32.352 Q 50.398 -32.832 49.998 -33.128 Q 49.598 -33.424 49.006 -33.6 Q 48.414 -33.776 47.814 -33.88 Q 47.214 -33.984 46.798 -34.064 Q 46.398 -33.808 46.062 -33.48 Q 45.726 -33.152 45.726 -32.528 Q 45.726 -31.888 46.222 -31.408 Q 46.718 -30.928 47.934 -30.928 Q 49.086 -30.928 49.742 -31.352 Q 50.398 -31.776 50.398 -32.352 Z M 49.998 -39.28 L 49.998 -39.28 Q 49.998 -40.08 49.694 -40.616 Q 49.39 -41.152 48.686 -41.152 Q 47.998 -41.152 47.55 -40.576 Q 47.102 -40 47.102 -38.832 Q 47.102 -38 47.39 -37.48 Q 47.678 -36.96 48.366 -36.96 Q 49.166 -36.96 49.582 -37.632 Q 49.998 -38.304 49.998 -39.28 Z " fill="black" /><path d="M 58.976 -38.963 L 58.976 -38.963 L 57.766 -32.21 Q 57.766 -32.21 57.744 -32.092 Q 57.722 -31.974 57.699 -31.829 Q 57.677 -31.683 57.677 -31.594 Q 57.677 -31.448 57.744 -31.392 Q 57.811 -31.336 57.923 -31.336 Q 58.136 -31.336 58.315 -31.465 Q 58.494 -31.594 58.623 -31.745 Q 58.752 -31.896 58.797 -31.963 L 59.088 -31.739 Q 58.909 -31.482 58.679 -31.19 Q 58.45 -30.899 58.13 -30.698 Q 57.811 -30.496 57.352 -30.496 Q 56.971 -30.496 56.775 -30.658 Q 56.579 -30.821 56.579 -31.067 Q 56.579 -31.202 56.613 -31.325 Q 56.646 -31.448 56.658 -31.582 L 56.512 -31.582 Q 56.086 -31.112 55.582 -30.782 Q 55.078 -30.451 54.474 -30.451 Q 54.048 -30.451 53.69 -30.658 Q 53.331 -30.866 53.124 -31.319 Q 52.917 -31.773 52.917 -32.501 Q 52.917 -33.296 53.169 -33.996 Q 53.421 -34.696 53.863 -35.239 Q 54.306 -35.782 54.894 -36.09 Q 55.482 -36.398 56.154 -36.398 Q 56.579 -36.398 56.865 -36.275 Q 57.15 -36.152 57.341 -35.928 L 57.408 -35.928 L 57.755 -37.664 Q 57.755 -37.664 57.772 -37.804 Q 57.789 -37.944 57.789 -38.056 Q 57.789 -38.235 57.705 -38.364 Q 57.621 -38.493 57.352 -38.493 Q 57.262 -38.493 57.122 -38.482 Q 56.982 -38.47 56.982 -38.47 L 56.982 -38.84 L 58.595 -38.963 Z M 56.803 -32.781 L 56.803 -32.781 Q 56.96 -33.408 57.044 -33.929 Q 57.128 -34.45 57.128 -34.73 Q 57.128 -35.222 56.854 -35.564 Q 56.579 -35.906 56.064 -35.906 Q 55.594 -35.906 55.224 -35.62 Q 54.854 -35.334 54.591 -34.858 Q 54.328 -34.382 54.188 -33.806 Q 54.048 -33.229 54.048 -32.646 Q 54.048 -31.918 54.278 -31.616 Q 54.507 -31.314 54.966 -31.314 Q 55.403 -31.314 55.778 -31.526 Q 56.154 -31.739 56.422 -32.075 Q 56.691 -32.411 56.803 -32.781 Z " fill="black" /></g></g></g><circle cx="143.99999999999997" cy="-0.0" r="2.6999999999999997" style="stroke:black;fill:black;stroke-width:2.0;stroke-dasharray:-;" /><g><g><g><path d="M 124.515 -34.466 L 124.515 -34.466 L 124.787 -34.226 Q 124.291 -33.458 123.515 -32.882 Q 122.739 -32.306 121.651 -32.306 Q 120.787 -32.306 120.243 -32.69 Q 119.699 -33.074 119.451 -33.738 Q 119.203 -34.402 119.203 -35.202 Q 119.203 -36.194 119.539 -37.09 Q 119.875 -37.986 120.459 -38.674 Q 121.043 -39.362 121.803 -39.762 Q 122.563 -40.162 123.427 -40.162 Q 124.179 -40.162 124.715 -39.81 Q 125.251 -39.458 125.251 -38.674 Q 125.251 -38.194 125.027 -37.858 Q 124.803 -37.522 124.355 -37.522 Q 123.747 -37.522 123.747 -38.082 Q 123.747 -38.402 123.899 -38.706 Q 124.051 -39.01 124.051 -39.202 Q 124.051 -39.378 123.851 -39.506 Q 123.651 -39.634 123.267 -39.634 Q 122.611 -39.634 122.099 -39.25 Q 121.587 -38.866 121.235 -38.234 Q 120.883 -37.602 120.707 -36.874 Q 120.531 -36.146 120.531 -35.442 Q 120.531 -34.594 120.779 -34.154 Q 121.027 -33.714 121.427 -33.562 Q 121.827 -33.41 122.291 -33.41 Q 123.123 -33.41 123.635 -33.714 Q 124.147 -34.018 124.515 -34.466 Z " fill="black" /><path d="M 130.954 -29.138 L 130.954 -29.138 L 127.157 -29.138 L 127.157 -29.541 Q 127.963 -29.541 128.226 -29.704 Q 128.49 -29.866 128.49 -30.292 L 128.49 -35.175 Q 128.49 -35.477 128.4 -35.612 Q 128.31 -35.746 128.075 -35.746 Q 127.896 -35.746 127.588 -35.696 Q 127.28 -35.645 127.056 -35.589 L 127.056 -36.037 L 129.128 -36.608 L 129.61 -36.608 L 129.61 -30.292 Q 129.61 -29.866 129.895 -29.704 Q 130.181 -29.541 130.954 -29.541 Z " fill="black" /></g></g></g><circle cx="71.99999999999999" cy="-8.817456953860943e-15" r="2.6999999999999997" style="stroke:black;fill:black;stroke-width:2.0;stroke-dasharray:-;" /><g><g><g><path d="M 196.015 -95.672 L 196.015 -95.672 L 195.919 -94.856 L 194.527 -95.016 L 194.527 -94.968 Q 194.799 -94.664 194.951 -94.208 Q 195.103 -93.752 195.103 -93.336 Q 195.103 -92.616 194.815 -92.128 Q 194.527 -91.64 194.063 -91.344 Q 193.599 -91.048 193.039 -90.896 Q 192.479 -90.744 191.951 -90.696 Q 191.311 -90.632 191.047 -90.424 Q 190.783 -90.216 190.783 -89.992 Q 190.783 -89.704 191.103 -89.552 Q 191.423 -89.4 191.927 -89.304 Q 192.431 -89.208 193.007 -89.088 Q 193.583 -88.968 194.087 -88.76 Q 194.591 -88.552 194.911 -88.176 Q 195.231 -87.8 195.231 -87.176 Q 195.231 -86.488 194.783 -85.904 Q 194.335 -85.32 193.455 -84.96 Q 192.575 -84.6 191.295 -84.6 Q 190.143 -84.6 189.455 -84.88 Q 188.767 -85.16 188.463 -85.6 Q 188.159 -86.04 188.159 -86.52 Q 188.159 -87.288 188.751 -87.76 Q 189.343 -88.232 190.095 -88.472 L 190.095 -88.536 Q 189.887 -88.664 189.703 -88.896 Q 189.519 -89.128 189.519 -89.496 Q 189.519 -89.896 189.727 -90.136 Q 189.935 -90.376 190.263 -90.528 Q 190.591 -90.68 190.911 -90.792 L 190.911 -90.888 Q 190.287 -91.16 189.823 -91.656 Q 189.359 -92.152 189.359 -93.064 Q 189.359 -93.896 189.759 -94.528 Q 190.159 -95.16 190.855 -95.512 Q 191.551 -95.864 192.415 -95.864 Q 192.991 -95.864 193.287 -95.808 Q 193.583 -95.752 193.871 -95.672 Z M 194.079 -86.584 L 194.079 -86.584 Q 194.079 -87.064 193.679 -87.36 Q 193.279 -87.656 192.687 -87.832 Q 192.095 -88.008 191.495 -88.112 Q 190.895 -88.216 190.479 -88.296 Q 190.079 -88.04 189.743 -87.712 Q 189.407 -87.384 189.407 -86.76 Q 189.407 -86.12 189.903 -85.64 Q 190.399 -85.16 191.615 -85.16 Q 192.767 -85.16 193.423 -85.584 Q 194.079 -86.008 194.079 -86.584 Z M 193.679 -93.512 L 193.679 -93.512 Q 193.679 -94.312 193.375 -94.848 Q 193.071 -95.384 192.367 -95.384 Q 191.679 -95.384 191.231 -94.808 Q 190.783 -94.232 190.783 -93.064 Q 190.783 -92.232 191.071 -91.712 Q 191.359 -91.192 192.047 -91.192 Q 192.847 -91.192 193.263 -91.864 Q 193.679 -92.536 193.679 -93.512 Z " fill="black" /><path d="M 201.078 -84.84 L 201.078 -84.84 L 197.281 -84.84 L 197.281 -85.243 Q 198.087 -85.243 198.35 -85.406 Q 198.614 -85.568 198.614 -85.994 L 198.614 -90.877 Q 198.614 -91.179 198.524 -91.314 Q 198.434 -91.448 198.199 -91.448 Q 198.02 -91.448 197.712 -91.398 Q 197.404 -91.347 197.18 -91.291 L 197.18 -91.739 L 199.252 -92.31 L 199.734 -92.31 L 199.734 -85.994 Q 199.734 -85.568 200.019 -85.406 Q 200.305 -85.243 201.078 -85.243 Z " fill="black" /><path d="M 202.881 -90.664 L 202.881 -90.664 L 202.556 -90.821 Q 202.892 -91.582 203.446 -91.969 Q 204.001 -92.355 204.695 -92.355 Q 205.591 -92.355 206.14 -91.918 Q 206.689 -91.482 206.689 -90.787 Q 206.689 -90.182 206.319 -89.813 Q 205.95 -89.443 205.401 -89.085 L 205.401 -89.029 Q 205.871 -88.906 206.269 -88.659 Q 206.666 -88.413 206.902 -88.026 Q 207.137 -87.64 207.137 -87.091 Q 207.137 -86.475 206.868 -86.022 Q 206.599 -85.568 206.14 -85.271 Q 205.681 -84.974 205.093 -84.834 Q 204.505 -84.694 203.866 -84.694 Q 203.318 -84.694 203.032 -84.79 Q 202.746 -84.885 202.64 -85.042 Q 202.534 -85.198 202.534 -85.355 Q 202.534 -85.546 202.646 -85.73 Q 202.758 -85.915 203.026 -85.915 Q 203.138 -85.915 203.256 -85.854 Q 203.374 -85.792 203.687 -85.613 Q 203.945 -85.49 204.096 -85.422 Q 204.247 -85.355 204.365 -85.333 Q 204.482 -85.31 204.639 -85.31 Q 204.975 -85.31 205.306 -85.434 Q 205.636 -85.557 205.86 -85.876 Q 206.084 -86.195 206.084 -86.778 Q 206.084 -87.293 205.798 -87.662 Q 205.513 -88.032 205.031 -88.239 Q 204.55 -88.446 203.967 -88.446 L 203.721 -88.446 L 203.721 -88.973 L 203.956 -88.973 Q 204.359 -88.973 204.74 -89.158 Q 205.121 -89.342 205.367 -89.684 Q 205.614 -90.026 205.614 -90.496 Q 205.614 -91.022 205.272 -91.291 Q 204.93 -91.56 204.404 -91.56 Q 203.43 -91.56 202.881 -90.664 Z " fill="black" /></g></g></g><g><g><g><path d="M 232.347 -35.889 L 232.347 -35.889 L 232.619 -35.649 Q 232.123 -34.881 231.347 -34.305 Q 230.571 -33.729 229.483 -33.729 Q 228.619 -33.729 228.075 -34.113 Q 227.531 -34.497 227.283 -35.161 Q 227.035 -35.825 227.035 -36.625 Q 227.035 -37.617 227.371 -38.513 Q 227.707 -39.409 228.291 -40.097 Q 228.875 -40.785 229.635 -41.185 Q 230.395 -41.585 231.259 -41.585 Q 232.011 -41.585 232.547 -41.233 Q 233.083 -40.881 233.083 -40.097 Q 233.083 -39.617 232.859 -39.281 Q 232.635 -38.945 232.187 -38.945 Q 231.579 -38.945 231.579 -39.505 Q 231.579 -39.825 231.731 -40.129 Q 231.883 -40.433 231.883 -40.625 Q 231.883 -40.801 231.683 -40.929 Q 231.483 -41.057 231.099 -41.057 Q 230.443 -41.057 229.931 -40.673 Q 229.419 -40.289 229.067 -39.657 Q 228.715 -39.025 228.539 -38.297 Q 228.363 -37.569 228.363 -36.865 Q 228.363 -36.017 228.611 -35.577 Q 228.859 -35.137 229.259 -34.985 Q 229.659 -34.833 230.123 -34.833 Q 230.955 -34.833 231.467 -35.137 Q 231.979 -35.441 232.347 -35.889 Z " fill="black" /><path d="M 234.888 -36.385 L 234.888 -36.385 L 234.563 -36.542 Q 234.899 -37.303 235.454 -37.69 Q 236.008 -38.076 236.702 -38.076 Q 237.598 -38.076 238.147 -37.639 Q 238.696 -37.202 238.696 -36.508 Q 238.696 -35.903 238.326 -35.534 Q 237.957 -35.164 237.408 -34.806 L 237.408 -34.75 Q 237.878 -34.626 238.276 -34.38 Q 238.674 -34.134 238.909 -33.747 Q 239.144 -33.361 239.144 -32.812 Q 239.144 -32.196 238.875 -31.742 Q 238.606 -31.289 238.147 -30.992 Q 237.688 -30.695 237.1 -30.555 Q 236.512 -30.415 235.874 -30.415 Q 235.325 -30.415 235.039 -30.51 Q 234.754 -30.606 234.647 -30.762 Q 234.541 -30.919 234.541 -31.076 Q 234.541 -31.266 234.653 -31.451 Q 234.765 -31.636 235.034 -31.636 Q 235.146 -31.636 235.263 -31.574 Q 235.381 -31.513 235.694 -31.334 Q 235.952 -31.21 236.103 -31.143 Q 236.254 -31.076 236.372 -31.054 Q 236.49 -31.031 236.646 -31.031 Q 236.982 -31.031 237.313 -31.154 Q 237.643 -31.278 237.867 -31.597 Q 238.091 -31.916 238.091 -32.498 Q 238.091 -33.014 237.806 -33.383 Q 237.52 -33.753 237.038 -33.96 Q 236.557 -34.167 235.974 -34.167 L 235.728 -34.167 L 235.728 -34.694 L 235.963 -34.694 Q 236.366 -34.694 236.747 -34.878 Q 237.128 -35.063 237.374 -35.405 Q 237.621 -35.746 237.621 -36.217 Q 237.621 -36.743 237.279 -37.012 Q 236.938 -37.281 236.411 -37.281 Q 235.437 -37.281 234.888 -36.385 Z " fill="black" /></g></g></g><g><g><g><path d="M 303.931 -95.672 L 303.931 -95.672 L 303.835 -94.856 L 302.443 -95.016 L 302.443 -94.968 Q 302.715 -94.664 302.867 -94.208 Q 303.019 -93.752 303.019 -93.336 Q 303.019 -92.616 302.731 -92.128 Q 302.443 -91.64 301.979 -91.344 Q 301.515 -91.048 300.955 -90.896 Q 300.395 -90.744 299.867 -90.696 Q 299.227 -90.632 298.963 -90.424 Q 298.699 -90.216 298.699 -89.992 Q 298.699 -89.704 299.019 -89.552 Q 299.339 -89.4 299.843 -89.304 Q 300.347 -89.208 300.923 -89.088 Q 301.499 -88.968 302.003 -88.76 Q 302.507 -88.552 302.827 -88.176 Q 303.147 -87.8 303.147 -87.176 Q 303.147 -86.488 302.699 -85.904 Q 302.251 -85.32 301.371 -84.96 Q 300.491 -84.6 299.211 -84.6 Q 298.059 -84.6 297.371 -84.88 Q 296.683 -85.16 296.379 -85.6 Q 296.075 -86.04 296.075 -86.52 Q 296.075 -87.288 296.667 -87.76 Q 297.259 -88.232 298.011 -88.472 L 298.011 -88.536 Q 297.803 -88.664 297.619 -88.896 Q 297.435 -89.128 297.435 -89.496 Q 297.435 -89.896 297.643 -90.136 Q 297.851 -90.376 298.179 -90.528 Q 298.507 -90.68 298.827 -90.792 L 298.827 -90.888 Q 298.203 -91.16 297.739 -91.656 Q 297.275 -92.152 297.275 -93.064 Q 297.275 -93.896 297.675 -94.528 Q 298.075 -95.16 298.771 -95.512 Q 299.467 -95.864 300.331 -95.864 Q 300.907 -95.864 301.203 -95.808 Q 301.499 -95.752 301.787 -95.672 Z M 301.995 -86.584 L 301.995 -86.584 Q 301.995 -87.064 301.595 -87.36 Q 301.195 -87.656 300.603 -87.832 Q 300.011 -88.008 299.411 -88.112 Q 298.811 -88.216 298.395 -88.296 Q 297.995 -88.04 297.659 -87.712 Q 297.323 -87.384 297.323 -86.76 Q 297.323 -86.12 297.819 -85.64 Q 298.315 -85.16 299.531 -85.16 Q 300.683 -85.16 301.339 -85.584 Q 301.995 -86.008 301.995 -86.584 Z M 301.595 -93.512 L 301.595 -93.512 Q 301.595 -94.312 301.291 -94.848 Q 300.987 -95.384 300.283 -95.384 Q 299.595 -95.384 299.147 -94.808 Q 298.699 -94.232 298.699 -93.064 Q 298.699 -92.232 298.987 -91.712 Q 299.275 -91.192 299.963 -91.192 Q 300.763 -91.192 301.179 -91.864 Q 301.595 -92.536 301.595 -93.512 Z " fill="black" /><path d="M 309.632 -86.789 L 309.632 -86.789 L 309.251 -84.84 L 304.659 -84.84 L 304.659 -85.389 L 306.25 -87.002 Q 306.877 -87.629 307.286 -88.11 Q 307.694 -88.592 307.896 -89.079 Q 308.098 -89.566 308.098 -90.194 Q 308.098 -90.787 307.734 -91.174 Q 307.37 -91.56 306.709 -91.56 Q 306.104 -91.56 305.695 -91.319 Q 305.286 -91.078 304.973 -90.53 L 304.67 -90.675 Q 304.95 -91.459 305.538 -91.907 Q 306.126 -92.355 306.989 -92.355 Q 307.661 -92.355 308.176 -92.114 Q 308.691 -91.874 308.982 -91.426 Q 309.274 -90.978 309.274 -90.339 Q 309.274 -89.79 309.027 -89.309 Q 308.781 -88.827 308.327 -88.323 Q 307.874 -87.819 307.246 -87.203 L 305.846 -85.848 L 305.846 -85.77 L 306.72 -85.814 L 308.176 -85.814 Q 308.501 -85.814 308.674 -85.904 Q 308.848 -85.994 308.971 -86.212 Q 309.094 -86.43 309.24 -86.789 Z " fill="black" /><path d="M 310.965 -90.664 L 310.965 -90.664 L 310.64 -90.821 Q 310.976 -91.582 311.53 -91.969 Q 312.085 -92.355 312.779 -92.355 Q 313.675 -92.355 314.224 -91.918 Q 314.773 -91.482 314.773 -90.787 Q 314.773 -90.182 314.403 -89.813 Q 314.034 -89.443 313.485 -89.085 L 313.485 -89.029 Q 313.955 -88.906 314.353 -88.659 Q 314.75 -88.413 314.986 -88.026 Q 315.221 -87.64 315.221 -87.091 Q 315.221 -86.475 314.952 -86.022 Q 314.683 -85.568 314.224 -85.271 Q 313.765 -84.974 313.177 -84.834 Q 312.589 -84.694 311.95 -84.694 Q 311.402 -84.694 311.116 -84.79 Q 310.83 -84.885 310.724 -85.042 Q 310.618 -85.198 310.618 -85.355 Q 310.618 -85.546 310.73 -85.73 Q 310.842 -85.915 311.11 -85.915 Q 311.222 -85.915 311.34 -85.854 Q 311.458 -85.792 311.771 -85.613 Q 312.029 -85.49 312.18 -85.422 Q 312.331 -85.355 312.449 -85.333 Q 312.566 -85.31 312.723 -85.31 Q 313.059 -85.31 313.39 -85.434 Q 313.72 -85.557 313.944 -85.876 Q 314.168 -86.195 314.168 -86.778 Q 314.168 -87.293 313.882 -87.662 Q 313.597 -88.032 313.115 -88.239 Q 312.634 -88.446 312.051 -88.446 L 311.805 -88.446 L 311.805 -88.973 L 312.04 -88.973 Q 312.443 -88.973 312.824 -89.158 Q 313.205 -89.342 313.451 -89.684 Q 313.698 -90.026 313.698 -90.496 Q 313.698 -91.022 313.356 -91.291 Q 313.014 -91.56 312.488 -91.56 Q 311.514 -91.56 310.965 -90.664 Z " fill="black" /></g></g></g><g><g><g><path d="M 356.41 -86.58 L 356.41 -86.58 L 356.762 -86.58 L 356.01 -83.508 Q 355.898 -83.092 355.778 -82.508 Q 355.658 -81.924 355.658 -81.38 Q 355.658 -80.756 355.914 -80.3 Q 356.17 -79.844 356.906 -79.844 Q 357.722 -79.844 358.314 -80.236 Q 358.906 -80.628 359.282 -81.236 Q 359.658 -81.844 359.842 -82.516 Q 360.026 -83.188 360.026 -83.748 Q 360.026 -84.164 359.882 -84.468 Q 359.738 -84.772 359.538 -85.012 Q 359.338 -85.252 359.194 -85.476 Q 359.05 -85.7 359.05 -85.956 Q 359.05 -86.276 359.226 -86.452 Q 359.402 -86.628 359.658 -86.628 Q 360.202 -86.628 360.538 -86.084 Q 360.874 -85.54 360.874 -84.692 Q 360.874 -83.956 360.69 -83.148 Q 360.506 -82.34 360.138 -81.572 Q 359.77 -80.804 359.226 -80.18 Q 358.682 -79.556 357.978 -79.188 Q 357.274 -78.82 356.41 -78.82 Q 355.61 -78.82 355.162 -79.14 Q 354.714 -79.46 354.53 -79.988 Q 354.346 -80.516 354.346 -81.124 Q 354.346 -81.7 354.458 -82.308 Q 354.57 -82.916 354.698 -83.412 L 355.018 -84.628 Q 355.05 -84.756 355.114 -85.012 Q 355.178 -85.268 355.178 -85.508 Q 355.178 -85.716 355.098 -85.86 Q 355.018 -86.004 354.794 -86.004 Q 354.602 -86.004 354.33 -85.98 Q 354.058 -85.956 354.058 -85.956 L 354.058 -86.404 Z " fill="black" /><path d="M 367.246 -77.552 L 367.246 -77.552 L 366.866 -75.604 L 362.274 -75.604 L 362.274 -76.152 L 363.864 -77.765 Q 364.491 -78.392 364.9 -78.874 Q 365.309 -79.356 365.51 -79.843 Q 365.712 -80.33 365.712 -80.957 Q 365.712 -81.551 365.348 -81.937 Q 364.984 -82.324 364.323 -82.324 Q 363.718 -82.324 363.31 -82.083 Q 362.901 -81.842 362.587 -81.293 L 362.285 -81.439 Q 362.565 -82.223 363.153 -82.671 Q 363.741 -83.119 364.603 -83.119 Q 365.275 -83.119 365.79 -82.878 Q 366.306 -82.637 366.597 -82.189 Q 366.888 -81.741 366.888 -81.103 Q 366.888 -80.554 366.642 -80.072 Q 366.395 -79.591 365.942 -79.087 Q 365.488 -78.583 364.861 -77.967 L 363.461 -76.612 L 363.461 -76.533 L 364.334 -76.578 L 365.79 -76.578 Q 366.115 -76.578 366.289 -76.668 Q 366.462 -76.757 366.586 -76.976 Q 366.709 -77.194 366.854 -77.552 Z " fill="black" /></g></g></g><g><g><g><path d="M 340.347 -35.816 L 340.347 -35.816 L 340.619 -35.576 Q 340.123 -34.808 339.347 -34.232 Q 338.571 -33.656 337.483 -33.656 Q 336.619 -33.656 336.075 -34.04 Q 335.531 -34.424 335.283 -35.088 Q 335.035 -35.752 335.035 -36.552 Q 335.035 -37.544 335.371 -38.44 Q 335.707 -39.336 336.291 -40.024 Q 336.875 -40.712 337.635 -41.112 Q 338.395 -41.512 339.259 -41.512 Q 340.011 -41.512 340.547 -41.16 Q 341.083 -40.808 341.083 -40.024 Q 341.083 -39.544 340.859 -39.208 Q 340.635 -38.872 340.187 -38.872 Q 339.579 -38.872 339.579 -39.432 Q 339.579 -39.752 339.731 -40.056 Q 339.883 -40.36 339.883 -40.552 Q 339.883 -40.728 339.683 -40.856 Q 339.483 -40.984 339.099 -40.984 Q 338.443 -40.984 337.931 -40.6 Q 337.419 -40.216 337.067 -39.584 Q 336.715 -38.952 336.539 -38.224 Q 336.363 -37.496 336.363 -36.792 Q 336.363 -35.944 336.611 -35.504 Q 336.859 -35.064 337.259 -34.912 Q 337.659 -34.76 338.123 -34.76 Q 338.955 -34.76 339.467 -35.064 Q 339.979 -35.368 340.347 -35.816 Z " fill="black" /><path d="M 347.424 -32.437 L 347.424 -32.437 L 347.043 -30.488 L 342.451 -30.488 L 342.451 -31.037 L 344.042 -32.65 Q 344.669 -33.277 345.078 -33.758 Q 345.486 -34.24 345.688 -34.727 Q 345.89 -35.214 345.89 -35.842 Q 345.89 -36.435 345.526 -36.822 Q 345.162 -37.208 344.501 -37.208 Q 343.896 -37.208 343.487 -36.967 Q 343.078 -36.726 342.765 -36.178 L 342.462 -36.323 Q 342.742 -37.107 343.33 -37.555 Q 343.918 -38.003 344.781 -38.003 Q 345.453 -38.003 345.968 -37.762 Q 346.483 -37.522 346.774 -37.074 Q 347.066 -36.626 347.066 -35.987 Q 347.066 -35.438 346.819 -34.957 Q 346.573 -34.475 346.119 -33.971 Q 345.666 -33.467 345.038 -32.851 L 343.638 -31.496 L 343.638 -31.418 L 344.512 -31.462 L 345.968 -31.462 Q 346.293 -31.462 346.466 -31.552 Q 346.64 -31.642 346.763 -31.86 Q 346.886 -32.078 347.032 -32.437 Z " fill="black" /></g></g></g><circle cx="144.0" cy="-72.0" r="2.6999999999999997" style="stroke:black;fill:black;stroke-width:2.0;stroke-dasharray:-;" /><g><g><g><path d="M 140.494 -89.276 L 140.494 -89.276 L 140.846 -89.276 L 140.094 -86.204 Q 139.982 -85.788 139.862 -85.204 Q 139.742 -84.62 139.742 -84.076 Q 139.742 -83.452 139.998 -82.996 Q 140.254 -82.54 140.99 -82.54 Q 141.806 -82.54 142.398 -82.932 Q 142.99 -83.324 143.366 -83.932 Q 143.742 -84.54 143.926 -85.212 Q 144.11 -85.884 144.11 -86.444 Q 144.11 -86.86 143.966 -87.164 Q 143.822 -87.468 143.622 -87.708 Q 143.422 -87.948 143.278 -88.172 Q 143.134 -88.396 143.134 -88.652 Q 143.134 -88.972 143.31 -89.148 Q 143.486 -89.324 143.742 -89.324 Q 144.286 -89.324 144.622 -88.78 Q 144.958 -88.236 144.958 -87.388 Q 144.958 -86.652 144.774 -85.844 Q 144.59 -85.036 144.222 -84.268 Q 143.854 -83.5 143.31 -82.876 Q 142.766 -82.252 142.062 -81.884 Q 141.358 -81.516 140.494 -81.516 Q 139.694 -81.516 139.246 -81.836 Q 138.798 -82.156 138.614 -82.684 Q 138.43 -83.212 138.43 -83.82 Q 138.43 -84.396 138.542 -85.004 Q 138.654 -85.612 138.782 -86.108 L 139.102 -87.324 Q 139.134 -87.452 139.198 -87.708 Q 139.262 -87.964 139.262 -88.204 Q 139.262 -88.412 139.182 -88.556 Q 139.102 -88.7 138.878 -88.7 Q 138.686 -88.7 138.414 -88.676 Q 138.142 -88.652 138.142 -88.652 L 138.142 -89.1 Z " fill="black" /><path d="M 150.692 -78.3 L 150.692 -78.3 L 146.895 -78.3 L 146.895 -78.703 Q 147.702 -78.703 147.965 -78.866 Q 148.228 -79.028 148.228 -79.454 L 148.228 -84.337 Q 148.228 -84.639 148.138 -84.774 Q 148.049 -84.908 147.814 -84.908 Q 147.634 -84.908 147.326 -84.858 Q 147.018 -84.807 146.794 -84.751 L 146.794 -85.199 L 148.866 -85.77 L 149.348 -85.77 L 149.348 -79.454 Q 149.348 -79.028 149.634 -78.866 Q 149.919 -78.703 150.692 -78.703 Z " fill="black" /></g></g></g><circle cx="252.0" cy="-72.0" r="2.6999999999999997" style="stroke:black;fill:black;stroke-width:2.0;stroke-dasharray:-;" /><g><g><g><path d="M 248.41 -89.422 L 248.41 -89.422 L 248.762 -89.422 L 248.01 -86.35 Q 247.898 -85.934 247.778 -85.35 Q 247.658 -84.766 247.658 -84.222 Q 247.658 -83.598 247.914 -83.142 Q 248.17 -82.686 248.906 -82.686 Q 249.722 -82.686 250.314 -83.078 Q 250.906 -83.47 251.282 -84.078 Q 251.658 -84.686 251.842 -85.358 Q 252.026 -86.03 252.026 -86.59 Q 252.026 -87.006 251.882 -87.31 Q 251.738 -87.614 251.538 -87.854 Q 251.338 -88.094 251.194 -88.318 Q 251.05 -88.542 251.05 -88.798 Q 251.05 -89.118 251.226 -89.294 Q 251.402 -89.47 251.658 -89.47 Q 252.202 -89.47 252.538 -88.926 Q 252.874 -88.382 252.874 -87.534 Q 252.874 -86.798 252.69 -85.99 Q 252.506 -85.182 252.138 -84.414 Q 251.77 -83.646 251.226 -83.022 Q 250.682 -82.398 249.978 -82.03 Q 249.274 -81.662 248.41 -81.662 Q 247.61 -81.662 247.162 -81.982 Q 246.714 -82.302 246.53 -82.83 Q 246.346 -83.358 246.346 -83.966 Q 246.346 -84.542 246.458 -85.15 Q 246.57 -85.758 246.698 -86.254 L 247.018 -87.47 Q 247.05 -87.598 247.114 -87.854 Q 247.178 -88.11 247.178 -88.35 Q 247.178 -88.558 247.098 -88.702 Q 247.018 -88.846 246.794 -88.846 Q 246.602 -88.846 246.33 -88.822 Q 246.058 -88.798 246.058 -88.798 L 246.058 -89.246 Z " fill="black" /><path d="M 254.71 -84.27 L 254.71 -84.27 L 254.386 -84.426 Q 254.722 -85.188 255.276 -85.574 Q 255.83 -85.961 256.525 -85.961 Q 257.421 -85.961 257.97 -85.524 Q 258.518 -85.087 258.518 -84.393 Q 258.518 -83.788 258.149 -83.418 Q 257.779 -83.049 257.23 -82.69 L 257.23 -82.634 Q 257.701 -82.511 258.098 -82.265 Q 258.496 -82.018 258.731 -81.632 Q 258.966 -81.246 258.966 -80.697 Q 258.966 -80.081 258.698 -79.627 Q 258.429 -79.174 257.97 -78.877 Q 257.51 -78.58 256.922 -78.44 Q 256.334 -78.3 255.696 -78.3 Q 255.147 -78.3 254.862 -78.395 Q 254.576 -78.49 254.47 -78.647 Q 254.363 -78.804 254.363 -78.961 Q 254.363 -79.151 254.475 -79.336 Q 254.587 -79.521 254.856 -79.521 Q 254.968 -79.521 255.086 -79.459 Q 255.203 -79.398 255.517 -79.218 Q 255.774 -79.095 255.926 -79.028 Q 256.077 -78.961 256.194 -78.938 Q 256.312 -78.916 256.469 -78.916 Q 256.805 -78.916 257.135 -79.039 Q 257.466 -79.162 257.69 -79.482 Q 257.914 -79.801 257.914 -80.383 Q 257.914 -80.898 257.628 -81.268 Q 257.342 -81.638 256.861 -81.845 Q 256.379 -82.052 255.797 -82.052 L 255.55 -82.052 L 255.55 -82.578 L 255.786 -82.578 Q 256.189 -82.578 256.57 -82.763 Q 256.95 -82.948 257.197 -83.29 Q 257.443 -83.631 257.443 -84.102 Q 257.443 -84.628 257.102 -84.897 Q 256.76 -85.166 256.234 -85.166 Q 255.259 -85.166 254.71 -84.27 Z " fill="black" /></g></g></g><circle cx="252.0" cy="-0.0" r="2.6999999999999997" style="stroke:black;fill:black;stroke-width:2.0;stroke-dasharray:-;" /><g><g><g><path d="M 258.896 6.348 L 258.896 6.348 L 259.248 6.348 L 258.496 9.42 Q 258.384 9.836 258.264 10.42 Q 258.144 11.004 258.144 11.548 Q 258.144 12.172 258.4 12.628 Q 258.656 13.084 259.392 13.084 Q 260.208 13.084 260.8 12.692 Q 261.392 12.3 261.768 11.692 Q 262.144 11.084 262.328 10.412 Q 262.512 9.74 262.512 9.18 Q 262.512 8.764 262.368 8.46 Q 262.224 8.156 262.024 7.916 Q 261.824 7.676 261.68 7.452 Q 261.536 7.228 261.536 6.972 Q 261.536 6.652 261.712 6.476 Q 261.888 6.3 262.144 6.3 Q 262.688 6.3 263.024 6.844 Q 263.36 7.388 263.36 8.236 Q 263.36 8.972 263.176 9.78 Q 262.992 10.588 262.624 11.356 Q 262.256 12.124 261.712 12.748 Q 261.168 13.372 260.464 13.74 Q 259.76 14.108 258.896 14.108 Q 258.096 14.108 257.648 13.788 Q 257.2 13.468 257.016 12.94 Q 256.832 12.412 256.832 11.804 Q 256.832 11.228 256.944 10.62 Q 257.056 10.012 257.184 9.516 L 257.504 8.3 Q 257.536 8.172 257.6 7.916 Q 257.664 7.66 257.664 7.42 Q 257.664 7.212 257.584 7.068 Q 257.504 6.924 257.28 6.924 Q 257.088 6.924 256.816 6.948 Q 256.544 6.972 256.544 6.972 L 256.544 6.524 Z " fill="black" /><path d="M 270.214 13.617 L 270.214 13.617 Q 270.214 14.356 270.058 15.05 Q 269.901 15.745 269.57 16.288 Q 269.24 16.831 268.725 17.15 Q 268.21 17.47 267.504 17.47 Q 266.787 17.47 266.272 17.162 Q 265.757 16.854 265.432 16.316 Q 265.107 15.778 264.956 15.078 Q 264.805 14.378 264.805 13.594 Q 264.805 12.43 265.141 11.59 Q 265.477 10.75 266.087 10.29 Q 266.698 9.831 267.526 9.831 Q 268.299 9.831 268.91 10.274 Q 269.52 10.716 269.867 11.562 Q 270.214 12.407 270.214 13.617 Z M 269.016 13.695 L 269.016 13.695 Q 269.016 11.937 268.635 11.114 Q 268.254 10.29 267.504 10.29 Q 266.765 10.29 266.378 11.114 Q 265.992 11.937 265.992 13.65 Q 265.992 15.342 266.39 16.165 Q 266.787 16.988 267.504 16.988 Q 268.232 16.988 268.624 16.159 Q 269.016 15.33 269.016 13.695 Z " fill="black" /></g></g></g></svg>