<svg xmlns="http://www.w3.org/2000/svg" xml:lang="en" height="195.82239999999996pt" width="347.59999999999997pt" viewBox="-37.0 -168.18239999999997 347.59999999999997 195.82239999999996"><circle cx="2.204364238465236e-15" cy="-68.39999999999999" r="32.4" style="stroke:black;fill:none;stroke-width:2.0;" /><circle cx="136.8" cy="-68.39999999999999" r="32.4" style="stroke:black;fill:none;stroke-width:2.0;" /><circle cx="273.6" cy="-68.39999999999999" r="32.4" style="stroke:black;fill:none;stroke-width:2.0;" /><path d="M 0.0,-0.0 L 0.0,14.4 L -9.0,14.4 L 9.0,14.4 M -6.3,18.72 L 6.3,18.72 M -1.8,23.04 L 1.8,23.04" style="stroke:black;fill:none;stroke-width:2.0;stroke-linecap:round;stroke-linejoin:round;" /><path d="M 0.0,-0.0 L 9.037893377707467e-16,-14.760000000000002 M -8.999999999999998,-14.760000000000002 L 9.0,-14.760000000000002 M -8.999999999999998,-21.240000000000002 L 9.000000000000002,-21.240000000000002 M 1.3005749006944893e-15,-21.240000000000002 L 2.204364238465236e-15,-36.0" style="stroke:black;fill:none;stroke-width:2.0;stroke-linecap:round;stroke-linejoin:round;" /><path d="M 32.400000000000006,-68.39999999999999 L 65.16,-68.39999999999999 M 65.16,-77.39999999999999 L 65.16,-59.4 M 71.64000000000001,-77.39999999999999 L 71.64000000000001,-59.4 M 71.64000000000001,-68.39999999999999 L 104.4,-68.39999999999999" style="stroke:black;fill:none;stroke-width:2.0;stroke-linecap:round;stroke-linejoin:round;" /><path d="M 136.8,-35.99999999999999 L 136.8,-21.239999999999995 M 145.79999999999998,-21.239999999999995 L 127.80000000000001,-21.239999999999995 M 145.79999999999998,-14.759999999999993 L 127.80000000000001,-14.759999999999993 M 136.8,-14.759999999999993 L 136.8,3.9968028886505635e-15" style="stroke:black;fill:none;stroke-width:2.0;stroke-linecap:round;stroke-linejoin:round;" /><path d="M 136.8,3.9968028886505635e-15 L 136.8,14.400000000000006 L 127.80000000000001,14.400000000000006 L 145.8,14.400000000000006 M 130.50000000000003,18.720000000000006 L 143.1,18.720000000000006 M 135.00000000000003,23.040000000000006 L 138.6,23.040000000000006" style="stroke:black;fill:none;stroke-width:2.0;stroke-linecap:round;stroke-linejoin:round;" /><path d="M 169.20000000000002,-68.39999999999999 L 201.96,-68.39999999999999 M 201.96,-77.39999999999999 L 201.96,-59.4 M 208.44,-77.39999999999999 L 208.44,-59.4 M 208.44,-68.39999999999999 L 241.20000000000002,-68.39999999999999" style="stroke:black;fill:none;stroke-width:2.0;stroke-linecap:round;stroke-linejoin:round;" /><path d="M 273.6,-35.99999999999999 L 273.6,-21.239999999999995 M 282.6,-21.239999999999995 L 264.6,-21.239999999999995 M 282.6,-14.759999999999993 L 264.6,-14.759999999999993 M 273.6,-14.759999999999993 L 273.6,3.9968028886505635e-15" style="stroke:black;fill:none;stroke-width:2.0;stroke-linecap:round;stroke-linejoin:round;" /><path d="M 273.6,3.9968028886505635e-15 L 273.6,14.400000000000006 L 264.6,14.400000000000006 L 282.6,14.400000000000006 M 267.3,18.720000000000006 L 279.90000000000003,18.720000000000006 M 271.8,23.040000000000006 L 275.40000000000003,23.040000000000006" style="stroke:black;fill:none;stroke-width:2.0;stroke-linecap:round;stroke-linejoin:round;" /><path d="M 2.204364238465236e-15,-100.8 L 3.3065463576978533e-15,-118.8 L 4.408728476930472e-15,-136.79999999999998" style="stroke:black;fill:none;stroke-width:2.0;stroke-linecap:round;stroke-linejoin:round;" /><path d="M 273.6,-100.8 L 273.6,-118.8 L 273.6,-136.79999999999998" style="stroke:black;fill:none;stroke-width:2.0;stroke-linecap:round;stroke-linejoin:round;" /><path d="M 4.408728476930472e-15,-136.79999999999998 L 133.56,-136.79999999999998 M 133.56,-145.79999999999998 L 133.56,-127.8 M 140.04000000000002,-145.79999999999998 L 140.04000000000002,-127.8 M 140.04000000000002,-136.79999999999998 L 273.6,-136.79999999999998" style="stroke:black;fill:none;stroke-width:2.0;stroke-linecap:round;stroke-linejoin:round;" /><g><g><g><path d="M -23.928 -16.64 L -23.928 -16.64 L -23.64 -16.336 Q -24.456 -15.376 -25.528 -14.76 Q -26.6 -14.144 -28.12 -14.144 Q -29.56 -14.144 -30.424 -14.68 Q -31.288 -15.216 -31.664 -16.112 Q -32.04 -17.008 -32.04 -18.064 Q -32.04 -19.744 -31.528 -21.048 Q -31.016 -22.352 -30.128 -23.24 Q -29.24 -24.128 -28.12 -24.584 Q -27 -25.04 -25.784 -25.04 Q -24.968 -25.04 -24.512 -24.896 Q -24.056 -24.752 -23.8 -24.6 Q -23.544 -24.448 -23.352 -24.448 Q -23.16 -24.448 -23.016 -24.608 Q -22.872 -24.768 -22.68 -25.024 L -22.216 -25.024 L -22.968 -21.36 L -23.496 -21.36 Q -23.432 -22.96 -24.088 -23.656 Q -24.744 -24.352 -25.928 -24.352 Q -26.856 -24.352 -27.672 -23.928 Q -28.488 -23.504 -29.12 -22.728 Q -29.752 -21.952 -30.112 -20.872 Q -30.472 -19.792 -30.472 -18.464 Q -30.472 -16.864 -29.712 -16.024 Q -28.952 -15.184 -27.368 -15.184 Q -25.528 -15.184 -23.928 -16.64 Z " fill="black" /><path d="M -17.957 -10.96 L -17.957 -10.96 L -21.832 -10.96 L -21.832 -11.274 Q -21.037 -11.274 -20.712 -11.442 Q -20.387 -11.61 -20.387 -12.024 L -20.387 -16.762 Q -20.387 -17.053 -20.466 -17.182 Q -20.544 -17.31 -20.757 -17.31 Q -20.925 -17.31 -21.283 -17.266 Q -21.642 -17.221 -21.899 -17.131 L -21.899 -17.501 L -19.726 -18.117 L -19.402 -18.117 L -19.402 -12.024 Q -19.402 -11.61 -19.066 -11.442 Q -18.73 -11.274 -17.957 -11.274 Z " fill="black" /><path d="M -12.413 -10.96 L -12.413 -10.96 L -16.288 -10.96 L -16.288 -11.274 Q -15.493 -11.274 -15.168 -11.442 Q -14.843 -11.61 -14.843 -12.024 L -14.843 -16.762 Q -14.843 -17.053 -14.922 -17.182 Q -15 -17.31 -15.213 -17.31 Q -15.381 -17.31 -15.739 -17.266 Q -16.098 -17.221 -16.355 -17.131 L -16.355 -17.501 L -14.182 -18.117 L -13.858 -18.117 L -13.858 -12.024 Q -13.858 -11.61 -13.522 -11.442 Q -13.186 -11.274 -12.413 -11.274 Z " fill="black" /></g></g></g><g><g><g><path d="M 2.304 -81.752 L 2.304 -81.752 L 2.208 -81.272 Q 1.776 -81.272 1.544 -81.192 Q 1.312 -81.112 1.136 -80.952 Q 0.992 -80.824 0.848 -80.64 Q 0.704 -80.456 0.576 -80.104 Q 0.448 -79.752 0.32 -79.128 L -1.312 -71.112 L -1.84 -71.112 L -6.544 -79.704 L -6.624 -79.704 L -7.872 -73.624 Q -8.032 -72.824 -8 -72.416 Q -7.968 -72.008 -7.672 -71.864 Q -7.376 -71.72 -6.784 -71.72 L -6.88 -71.24 L -10.56 -71.24 L -10.464 -71.72 Q -9.84 -71.72 -9.504 -71.856 Q -9.168 -71.992 -8.992 -72.408 Q -8.816 -72.824 -8.656 -73.624 L -7.232 -80.536 Q -7.504 -80.984 -7.776 -81.128 Q -8.048 -81.272 -8.56 -81.272 L -8.464 -81.752 L -5.952 -81.752 L -1.632 -73.88 L -1.552 -73.88 L -0.448 -79.208 Q -0.304 -79.928 -0.296 -80.296 Q -0.288 -80.664 -0.4 -80.872 Q -0.544 -81.112 -0.8 -81.192 Q -1.056 -81.272 -1.568 -81.272 L -1.472 -81.752 Z " fill="black" /><path d="M 9.12 -71.24 L 9.12 -71.24 L 3.584 -71.24 L 3.584 -71.688 Q 4.72 -71.688 5.184 -71.928 Q 5.648 -72.168 5.648 -72.76 L 5.648 -79.528 Q 5.648 -79.944 5.536 -80.128 Q 5.424 -80.312 5.12 -80.312 Q 4.88 -80.312 4.368 -80.248 Q 3.856 -80.184 3.488 -80.056 L 3.488 -80.584 L 6.592 -81.464 L 7.056 -81.464 L 7.056 -72.76 Q 7.056 -72.168 7.536 -71.928 Q 8.016 -71.688 9.12 -71.688 Z " fill="black" /></g><g><path d="M -24.768 -63.304 L -24.768 -63.304 L -24.8 -66.536 L -23.376 -66.536 L -23.376 -66.248 L -24.16 -63.304 Z M -27.12 -63.304 L -27.12 -63.304 L -27.136 -66.536 L -25.728 -66.536 L -25.728 -66.248 L -26.512 -63.304 Z " fill="black" /><path d="M -19.184 -55.24 L -19.184 -55.24 L -22.608 -65.752 L -21.152 -65.752 L -19.424 -60.088 Q -19.152 -59.16 -18.928 -58.352 Q -18.704 -57.544 -18.4 -56.616 L -18.32 -56.616 Q -18.032 -57.544 -17.8 -58.352 Q -17.568 -59.16 -17.296 -60.088 L -15.584 -65.752 L -14.192 -65.752 L -17.6 -55.24 Z " fill="black" /><path d="M -9.728 -55.048 L -9.728 -55.048 Q -10.88 -55.048 -11.832 -55.472 Q -12.784 -55.896 -13.488 -56.6 L -12.672 -57.544 Q -12.096 -56.952 -11.32 -56.6 Q -10.544 -56.248 -9.664 -56.248 Q -8.64 -56.248 -8.056 -56.712 Q -7.472 -57.176 -7.472 -57.96 Q -7.472 -58.472 -7.704 -58.792 Q -7.936 -59.112 -8.344 -59.336 Q -8.752 -59.56 -9.264 -59.768 L -10.8 -60.424 Q -11.264 -60.632 -11.776 -60.96 Q -12.288 -61.288 -12.632 -61.808 Q -12.976 -62.328 -12.976 -63.096 Q -12.976 -63.928 -12.536 -64.568 Q -12.096 -65.208 -11.336 -65.568 Q -10.576 -65.928 -9.616 -65.928 Q -8.64 -65.928 -7.824 -65.568 Q -7.008 -65.208 -6.432 -64.632 L -7.152 -63.752 Q -7.664 -64.216 -8.264 -64.48 Q -8.864 -64.744 -9.584 -64.744 Q -10.496 -64.744 -11.04 -64.336 Q -11.584 -63.928 -11.584 -63.224 Q -11.584 -62.728 -11.32 -62.408 Q -11.056 -62.088 -10.648 -61.88 Q -10.24 -61.672 -9.808 -61.496 L -8.288 -60.856 Q -7.68 -60.6 -7.176 -60.24 Q -6.672 -59.88 -6.376 -59.352 Q -6.08 -58.824 -6.08 -58.088 Q -6.08 -57.224 -6.52 -56.536 Q -6.96 -55.848 -7.776 -55.448 Q -8.592 -55.048 -9.728 -55.048 Z " fill="black" /><path d="M -0.16 -55.048 L -0.16 -55.048 Q -1.248 -55.048 -2.128 -55.48 Q -3.008 -55.912 -3.512 -56.912 Q -4.016 -57.912 -4.016 -59.592 L -4.016 -65.752 L -2.64 -65.752 L -2.64 -59.544 Q -2.64 -58.296 -2.312 -57.576 Q -1.984 -56.856 -1.424 -56.552 Q -0.864 -56.248 -0.16 -56.248 Q 0.56 -56.248 1.136 -56.552 Q 1.712 -56.856 2.048 -57.576 Q 2.384 -58.296 2.384 -59.544 L 2.384 -65.752 L 3.696 -65.752 L 3.696 -59.592 Q 3.696 -57.912 3.192 -56.912 Q 2.688 -55.912 1.816 -55.48 Q 0.944 -55.048 -0.16 -55.048 Z " fill="black" /><path d="M 6.576 -55.24 L 6.576 -55.24 L 6.576 -65.752 L 9.76 -65.752 Q 10.864 -65.752 11.696 -65.496 Q 12.528 -65.24 12.992 -64.68 Q 13.456 -64.12 13.456 -63.224 Q 13.456 -62.392 13.048 -61.76 Q 12.64 -61.128 11.888 -60.888 L 11.888 -60.824 Q 12.848 -60.648 13.464 -60.024 Q 14.08 -59.4 14.08 -58.28 Q 14.08 -57.272 13.56 -56.6 Q 13.04 -55.928 12.128 -55.584 Q 11.216 -55.24 10.016 -55.24 Z M 7.952 -56.328 L 7.952 -56.328 L 9.808 -56.328 Q 11.184 -56.328 11.96 -56.816 Q 12.736 -57.304 12.736 -58.328 Q 12.736 -59.32 11.992 -59.776 Q 11.248 -60.232 9.808 -60.232 L 7.952 -60.232 Z M 7.952 -61.272 L 7.952 -61.272 L 9.536 -61.272 Q 10.928 -61.272 11.52 -61.744 Q 12.112 -62.216 12.112 -63.016 Q 12.112 -63.912 11.464 -64.288 Q 10.816 -64.664 9.6 -64.664 L 7.952 -64.664 Z " fill="black" /><path d="M 19.184 -55.048 L 19.184 -55.048 Q 18.032 -55.048 17.08 -55.472 Q 16.128 -55.896 15.424 -56.6 L 16.24 -57.544 Q 16.816 -56.952 17.592 -56.6 Q 18.368 -56.248 19.248 -56.248 Q 20.272 -56.248 20.856 -56.712 Q 21.44 -57.176 21.44 -57.96 Q 21.44 -58.472 21.208 -58.792 Q 20.976 -59.112 20.568 -59.336 Q 20.16 -59.56 19.648 -59.768 L 18.112 -60.424 Q 17.648 -60.632 17.136 -60.96 Q 16.624 -61.288 16.28 -61.808 Q 15.936 -62.328 15.936 -63.096 Q 15.936 -63.928 16.376 -64.568 Q 16.816 -65.208 17.576 -65.568 Q 18.336 -65.928 19.296 -65.928 Q 20.272 -65.928 21.088 -65.568 Q 21.904 -65.208 22.48 -64.632 L 21.76 -63.752 Q 21.248 -64.216 20.648 -64.48 Q 20.048 -64.744 19.328 -64.744 Q 18.416 -64.744 17.872 -64.336 Q 17.328 -63.928 17.328 -63.224 Q 17.328 -62.728 17.592 -62.408 Q 17.856 -62.088 18.264 -61.88 Q 18.672 -61.672 19.104 -61.496 L 20.624 -60.856 Q 21.232 -60.6 21.736 -60.24 Q 22.24 -59.88 22.536 -59.352 Q 22.832 -58.824 22.832 -58.088 Q 22.832 -57.224 22.392 -56.536 Q 21.952 -55.848 21.136 -55.448 Q 20.32 -55.048 19.184 -55.048 Z " fill="black" /><path d="M 26.656 -63.304 L 26.656 -63.304 L 26.624 -66.536 L 28.048 -66.536 L 28.048 -66.248 L 27.264 -63.304 Z M 24.304 -63.304 L 24.304 -63.304 L 24.288 -66.536 L 25.696 -66.536 L 25.696 -66.248 L 24.912 -63.304 Z " fill="black" /></g></g></g><g><g><g><path d="M 67.272 -86.68 L 67.272 -86.68 L 67.56 -86.376 Q 66.744 -85.416 65.672 -84.8 Q 64.6 -84.184 63.08 -84.184 Q 61.64 -84.184 60.776 -84.72 Q 59.912 -85.256 59.536 -86.152 Q 59.16 -87.048 59.16 -88.104 Q 59.16 -89.784 59.672 -91.088 Q 60.184 -92.392 61.072 -93.28 Q 61.96 -94.168 63.08 -94.624 Q 64.2 -95.08 65.416 -95.08 Q 66.232 -95.08 66.688 -94.936 Q 67.144 -94.792 67.4 -94.64 Q 67.656 -94.488 67.848 -94.488 Q 68.04 -94.488 68.184 -94.648 Q 68.328 -94.808 68.52 -95.064 L 68.984 -95.064 L 68.232 -91.4 L 67.704 -91.4 Q 67.768 -93 67.112 -93.696 Q 66.456 -94.392 65.272 -94.392 Q 64.344 -94.392 63.528 -93.968 Q 62.712 -93.544 62.08 -92.768 Q 61.448 -91.992 61.088 -90.912 Q 60.728 -89.832 60.728 -88.504 Q 60.728 -86.904 61.488 -86.064 Q 62.248 -85.224 63.832 -85.224 Q 65.672 -85.224 67.272 -86.68 Z " fill="black" /><path d="M 73.243 -81 L 73.243 -81 L 69.368 -81 L 69.368 -81.314 Q 70.163 -81.314 70.488 -81.482 Q 70.813 -81.65 70.813 -82.064 L 70.813 -86.802 Q 70.813 -87.093 70.734 -87.222 Q 70.656 -87.35 70.443 -87.35 Q 70.275 -87.35 69.917 -87.306 Q 69.558 -87.261 69.301 -87.171 L 69.301 -87.541 L 71.474 -88.157 L 71.798 -88.157 L 71.798 -82.064 Q 71.798 -81.65 72.134 -81.482 Q 72.47 -81.314 73.243 -81.314 Z " fill="black" /><path d="M 79.213 -82.792 L 79.213 -82.792 L 78.854 -81 L 74.442 -81 L 74.442 -81.381 L 76.144 -83.083 Q 76.704 -83.654 77.074 -84.119 Q 77.443 -84.584 77.628 -85.054 Q 77.813 -85.525 77.813 -86.107 Q 77.813 -86.734 77.438 -87.11 Q 77.062 -87.485 76.413 -87.485 Q 75.864 -87.485 75.478 -87.25 Q 75.091 -87.014 74.778 -86.387 L 74.509 -86.499 Q 74.766 -87.317 75.326 -87.765 Q 75.886 -88.213 76.704 -88.213 Q 77.342 -88.213 77.824 -87.972 Q 78.306 -87.731 78.58 -87.3 Q 78.854 -86.869 78.854 -86.275 Q 78.854 -85.782 78.647 -85.329 Q 78.44 -84.875 78.031 -84.394 Q 77.622 -83.912 77.029 -83.307 L 75.55 -81.907 L 75.55 -81.851 L 76.334 -81.885 L 77.891 -81.885 Q 78.339 -81.885 78.518 -82.086 Q 78.698 -82.288 78.888 -82.792 Z " fill="black" /></g></g></g><g><g><g><path d="M 139.104 -81.752 L 139.104 -81.752 L 139.008 -81.272 Q 138.576 -81.272 138.344 -81.192 Q 138.112 -81.112 137.936 -80.952 Q 137.792 -80.824 137.648 -80.64 Q 137.504 -80.456 137.376 -80.104 Q 137.248 -79.752 137.12 -79.128 L 135.488 -71.112 L 134.96 -71.112 L 130.256 -79.704 L 130.176 -79.704 L 128.928 -73.624 Q 128.768 -72.824 128.8 -72.416 Q 128.832 -72.008 129.128 -71.864 Q 129.424 -71.72 130.016 -71.72 L 129.92 -71.24 L 126.24 -71.24 L 126.336 -71.72 Q 126.96 -71.72 127.296 -71.856 Q 127.632 -71.992 127.808 -72.408 Q 127.984 -72.824 128.144 -73.624 L 129.568 -80.536 Q 129.296 -80.984 129.024 -81.128 Q 128.752 -81.272 128.24 -81.272 L 128.336 -81.752 L 130.848 -81.752 L 135.168 -73.88 L 135.248 -73.88 L 136.352 -79.208 Q 136.496 -79.928 136.504 -80.296 Q 136.512 -80.664 136.4 -80.872 Q 136.256 -81.112 136 -81.192 Q 135.744 -81.272 135.232 -81.272 L 135.328 -81.752 Z " fill="black" /><path d="M 146.528 -73.8 L 146.528 -73.8 L 146.016 -71.24 L 139.712 -71.24 L 139.712 -71.784 L 142.144 -74.216 Q 142.944 -75.032 143.472 -75.696 Q 144 -76.36 144.264 -77.032 Q 144.528 -77.704 144.528 -78.536 Q 144.528 -79.432 143.992 -79.968 Q 143.456 -80.504 142.528 -80.504 Q 141.744 -80.504 141.192 -80.168 Q 140.64 -79.832 140.192 -78.936 L 139.808 -79.096 Q 140.176 -80.264 140.976 -80.904 Q 141.776 -81.544 142.944 -81.544 Q 143.856 -81.544 144.544 -81.2 Q 145.232 -80.856 145.624 -80.24 Q 146.016 -79.624 146.016 -78.776 Q 146.016 -78.072 145.72 -77.424 Q 145.424 -76.776 144.84 -76.088 Q 144.256 -75.4 143.408 -74.536 L 141.296 -72.536 L 141.296 -72.456 L 142.416 -72.504 L 144.64 -72.504 Q 145.28 -72.504 145.536 -72.792 Q 145.792 -73.08 146.064 -73.8 Z " fill="black" /></g><g><path d="M 126.336 -63.304 L 126.336 -63.304 L 126.304 -66.536 L 127.728 -66.536 L 127.728 -66.248 L 126.944 -63.304 Z M 123.984 -63.304 L 123.984 -63.304 L 123.968 -66.536 L 125.376 -66.536 L 125.376 -66.248 L 124.592 -63.304 Z " fill="black" /><path d="M 134.016 -55.048 L 134.016 -55.048 Q 132.688 -55.048 131.624 -55.696 Q 130.56 -56.344 129.952 -57.56 Q 129.344 -58.776 129.344 -60.456 Q 129.344 -62.168 129.968 -63.392 Q 130.592 -64.616 131.656 -65.272 Q 132.72 -65.928 134.032 -65.928 Q 135.152 -65.928 135.872 -65.52 Q 136.592 -65.112 137.04 -64.632 L 136.288 -63.752 Q 135.36 -64.744 134.08 -64.744 Q 133.104 -64.744 132.352 -64.232 Q 131.6 -63.72 131.176 -62.768 Q 130.752 -61.816 130.752 -60.488 Q 130.752 -59.192 131.16 -58.24 Q 131.568 -57.288 132.312 -56.768 Q 133.056 -56.248 134.064 -56.248 Q 134.832 -56.248 135.44 -56.56 Q 136.048 -56.872 136.56 -57.416 L 137.296 -56.568 Q 136.656 -55.848 135.856 -55.448 Q 135.056 -55.048 134.016 -55.048 Z " fill="black" /><path d="M 142.832 -55.24 L 142.832 -55.24 L 141.504 -55.24 L 141.504 -63.704 L 139.44 -63.704 L 139.44 -64.568 Q 140.288 -64.696 140.832 -64.88 Q 141.376 -65.064 141.824 -65.32 L 142.832 -65.32 Z " fill="black" /><path d="M 149.152 -63.304 L 149.152 -63.304 L 149.12 -66.536 L 150.544 -66.536 L 150.544 -66.248 L 149.76 -63.304 Z M 146.8 -63.304 L 146.8 -63.304 L 146.784 -66.536 L 148.192 -66.536 L 148.192 -66.248 L 147.408 -63.304 Z " fill="black" /></g></g></g><g><g><g><path d="M 112.872 -16.64 L 112.872 -16.64 L 113.16 -16.336 Q 112.344 -15.376 111.272 -14.76 Q 110.2 -14.144 108.68 -14.144 Q 107.24 -14.144 106.376 -14.68 Q 105.512 -15.216 105.136 -16.112 Q 104.76 -17.008 104.76 -18.064 Q 104.76 -19.744 105.272 -21.048 Q 105.784 -22.352 106.672 -23.24 Q 107.56 -24.128 108.68 -24.584 Q 109.8 -25.04 111.016 -25.04 Q 111.832 -25.04 112.288 -24.896 Q 112.744 -24.752 113 -24.6 Q 113.256 -24.448 113.448 -24.448 Q 113.64 -24.448 113.784 -24.608 Q 113.928 -24.768 114.12 -25.024 L 114.584 -25.024 L 113.832 -21.36 L 113.304 -21.36 Q 113.368 -22.96 112.712 -23.656 Q 112.056 -24.352 110.872 -24.352 Q 109.944 -24.352 109.128 -23.928 Q 108.312 -23.504 107.68 -22.728 Q 107.048 -21.952 106.688 -20.872 Q 106.328 -19.792 106.328 -18.464 Q 106.328 -16.864 107.088 -16.024 Q 107.848 -15.184 109.432 -15.184 Q 111.272 -15.184 112.872 -16.64 Z " fill="black" /><path d="M 119.269 -12.752 L 119.269 -12.752 L 118.91 -10.96 L 114.498 -10.96 L 114.498 -11.341 L 116.2 -13.043 Q 116.76 -13.614 117.13 -14.079 Q 117.499 -14.544 117.684 -15.014 Q 117.869 -15.485 117.869 -16.067 Q 117.869 -16.694 117.494 -17.07 Q 117.118 -17.445 116.469 -17.445 Q 115.92 -17.445 115.534 -17.21 Q 115.147 -16.974 114.834 -16.347 L 114.565 -16.459 Q 114.822 -17.277 115.382 -17.725 Q 115.942 -18.173 116.76 -18.173 Q 117.398 -18.173 117.88 -17.932 Q 118.362 -17.691 118.636 -17.26 Q 118.91 -16.829 118.91 -16.235 Q 118.91 -15.742 118.703 -15.289 Q 118.496 -14.835 118.087 -14.354 Q 117.678 -13.872 117.085 -13.267 L 115.606 -11.867 L 115.606 -11.811 L 116.39 -11.845 L 117.947 -11.845 Q 118.395 -11.845 118.574 -12.046 Q 118.754 -12.248 118.944 -12.752 Z " fill="black" /><path d="M 124.813 -12.752 L 124.813 -12.752 L 124.454 -10.96 L 120.042 -10.96 L 120.042 -11.341 L 121.744 -13.043 Q 122.304 -13.614 122.674 -14.079 Q 123.043 -14.544 123.228 -15.014 Q 123.413 -15.485 123.413 -16.067 Q 123.413 -16.694 123.038 -17.07 Q 122.662 -17.445 122.013 -17.445 Q 121.464 -17.445 121.078 -17.21 Q 120.691 -16.974 120.378 -16.347 L 120.109 -16.459 Q 120.366 -17.277 120.926 -17.725 Q 121.486 -18.173 122.304 -18.173 Q 122.942 -18.173 123.424 -17.932 Q 123.906 -17.691 124.18 -17.26 Q 124.454 -16.829 124.454 -16.235 Q 124.454 -15.742 124.247 -15.289 Q 124.04 -14.835 123.631 -14.354 Q 123.222 -13.872 122.629 -13.267 L 121.15 -11.867 L 121.15 -11.811 L 121.934 -11.845 L 123.491 -11.845 Q 123.939 -11.845 124.118 -12.046 Q 124.298 -12.248 124.488 -12.752 Z " fill="black" /></g></g></g><g><g><g><path d="M 204.072 -86.826 L 204.072 -86.826 L 204.36 -86.522 Q 203.544 -85.562 202.472 -84.946 Q 201.4 -84.33 199.88 -84.33 Q 198.44 -84.33 197.576 -84.866 Q 196.712 -85.402 196.336 -86.298 Q 195.96 -87.194 195.96 -88.25 Q 195.96 -89.93 196.472 -91.234 Q 196.984 -92.538 197.872 -93.426 Q 198.76 -94.314 199.88 -94.77 Q 201 -95.226 202.216 -95.226 Q 203.032 -95.226 203.488 -95.082 Q 203.944 -94.938 204.2 -94.786 Q 204.456 -94.634 204.648 -94.634 Q 204.84 -94.634 204.984 -94.794 Q 205.128 -94.954 205.32 -95.21 L 205.784 -95.21 L 205.032 -91.546 L 204.504 -91.546 Q 204.568 -93.146 203.912 -93.842 Q 203.256 -94.538 202.072 -94.538 Q 201.144 -94.538 200.328 -94.114 Q 199.512 -93.69 198.88 -92.914 Q 198.248 -92.138 197.888 -91.058 Q 197.528 -89.978 197.528 -88.65 Q 197.528 -87.05 198.288 -86.21 Q 199.048 -85.37 200.632 -85.37 Q 202.472 -85.37 204.072 -86.826 Z " fill="black" /><path d="M 210.469 -82.938 L 210.469 -82.938 L 210.11 -81.146 L 205.698 -81.146 L 205.698 -81.526 L 207.4 -83.229 Q 207.96 -83.8 208.33 -84.265 Q 208.699 -84.73 208.884 -85.2 Q 209.069 -85.67 209.069 -86.253 Q 209.069 -86.88 208.694 -87.255 Q 208.318 -87.63 207.669 -87.63 Q 207.12 -87.63 206.734 -87.395 Q 206.347 -87.16 206.034 -86.533 L 205.765 -86.645 Q 206.022 -87.462 206.582 -87.91 Q 207.142 -88.358 207.96 -88.358 Q 208.598 -88.358 209.08 -88.118 Q 209.562 -87.877 209.836 -87.446 Q 210.11 -87.014 210.11 -86.421 Q 210.11 -85.928 209.903 -85.474 Q 209.696 -85.021 209.287 -84.539 Q 208.878 -84.058 208.285 -83.453 L 206.806 -82.053 L 206.806 -81.997 L 207.59 -82.03 L 209.147 -82.03 Q 209.595 -82.03 209.774 -82.232 Q 209.954 -82.434 210.144 -82.938 Z " fill="black" /><path d="M 211.779 -86.723 L 211.779 -86.723 L 211.522 -86.869 Q 212.16 -88.358 213.549 -88.358 Q 214.411 -88.358 214.882 -87.927 Q 215.352 -87.496 215.352 -86.858 Q 215.352 -86.275 215.01 -85.917 Q 214.669 -85.558 214.142 -85.222 L 214.142 -85.189 Q 214.59 -85.054 214.966 -84.802 Q 215.341 -84.55 215.565 -84.186 Q 215.789 -83.822 215.789 -83.318 Q 215.789 -82.557 215.363 -82.036 Q 214.938 -81.515 214.243 -81.258 Q 213.549 -81 212.731 -81 Q 212.227 -81 211.958 -81.095 Q 211.69 -81.19 211.583 -81.33 Q 211.477 -81.47 211.477 -81.616 Q 211.477 -81.795 211.589 -81.952 Q 211.701 -82.109 211.914 -82.109 Q 212.048 -82.109 212.166 -82.058 Q 212.283 -82.008 212.574 -81.851 Q 212.933 -81.672 213.106 -81.616 Q 213.28 -81.56 213.482 -81.56 Q 213.84 -81.56 214.154 -81.689 Q 214.467 -81.818 214.669 -82.126 Q 214.87 -82.434 214.87 -82.982 Q 214.87 -83.486 214.59 -83.856 Q 214.31 -84.226 213.846 -84.433 Q 213.381 -84.64 212.843 -84.64 L 212.619 -84.64 L 212.619 -85.066 L 212.832 -85.066 Q 213.213 -85.066 213.571 -85.256 Q 213.93 -85.446 214.159 -85.794 Q 214.389 -86.141 214.389 -86.589 Q 214.389 -87.082 214.081 -87.356 Q 213.773 -87.63 213.246 -87.63 Q 212.742 -87.63 212.406 -87.401 Q 212.07 -87.171 211.779 -86.723 Z " fill="black" /></g></g></g><g><g><g><path d="M 275.904 -81.752 L 275.904 -81.752 L 275.808 -81.272 Q 275.376 -81.272 275.144 -81.192 Q 274.912 -81.112 274.736 -80.952 Q 274.592 -80.824 274.448 -80.64 Q 274.304 -80.456 274.176 -80.104 Q 274.048 -79.752 273.92 -79.128 L 272.288 -71.112 L 271.76 -71.112 L 267.056 -79.704 L 266.976 -79.704 L 265.728 -73.624 Q 265.568 -72.824 265.6 -72.416 Q 265.632 -72.008 265.928 -71.864 Q 266.224 -71.72 266.816 -71.72 L 266.72 -71.24 L 263.04 -71.24 L 263.136 -71.72 Q 263.76 -71.72 264.096 -71.856 Q 264.432 -71.992 264.608 -72.408 Q 264.784 -72.824 264.944 -73.624 L 266.368 -80.536 Q 266.096 -80.984 265.824 -81.128 Q 265.552 -81.272 265.04 -81.272 L 265.136 -81.752 L 267.648 -81.752 L 271.968 -73.88 L 272.048 -73.88 L 273.152 -79.208 Q 273.296 -79.928 273.304 -80.296 Q 273.312 -80.664 273.2 -80.872 Q 273.056 -81.112 272.8 -81.192 Q 272.544 -81.272 272.032 -81.272 L 272.128 -81.752 Z " fill="black" /><path d="M 277.28 -79.208 L 277.28 -79.208 L 276.912 -79.416 Q 277.824 -81.544 279.808 -81.544 Q 281.04 -81.544 281.712 -80.928 Q 282.384 -80.312 282.384 -79.4 Q 282.384 -78.568 281.896 -78.056 Q 281.408 -77.544 280.656 -77.064 L 280.656 -77.016 Q 281.296 -76.824 281.832 -76.464 Q 282.368 -76.104 282.688 -75.584 Q 283.008 -75.064 283.008 -74.344 Q 283.008 -73.256 282.4 -72.512 Q 281.792 -71.768 280.8 -71.4 Q 279.808 -71.032 278.64 -71.032 Q 277.92 -71.032 277.536 -71.168 Q 277.152 -71.304 277 -71.504 Q 276.848 -71.704 276.848 -71.912 Q 276.848 -72.168 277.008 -72.392 Q 277.168 -72.616 277.472 -72.616 Q 277.664 -72.616 277.832 -72.544 Q 278 -72.472 278.416 -72.248 Q 278.928 -71.992 279.176 -71.912 Q 279.424 -71.832 279.712 -71.832 Q 280.224 -71.832 280.672 -72.016 Q 281.12 -72.2 281.408 -72.64 Q 281.696 -73.08 281.696 -73.864 Q 281.696 -74.584 281.296 -75.112 Q 280.896 -75.64 280.232 -75.936 Q 279.568 -76.232 278.8 -76.232 L 278.48 -76.232 L 278.48 -76.84 L 278.784 -76.84 Q 279.328 -76.84 279.84 -77.112 Q 280.352 -77.384 280.68 -77.88 Q 281.008 -78.376 281.008 -79.016 Q 281.008 -79.72 280.568 -80.112 Q 280.128 -80.504 279.376 -80.504 Q 278.656 -80.504 278.176 -80.176 Q 277.696 -79.848 277.28 -79.208 Z " fill="black" /></g><g><path d="M 263.136 -63.304 L 263.136 -63.304 L 263.104 -66.536 L 264.528 -66.536 L 264.528 -66.248 L 263.744 -63.304 Z M 260.784 -63.304 L 260.784 -63.304 L 260.768 -66.536 L 262.176 -66.536 L 262.176 -66.248 L 261.392 -63.304 Z " fill="black" /><path d="M 270.816 -55.048 L 270.816 -55.048 Q 269.488 -55.048 268.424 -55.696 Q 267.36 -56.344 266.752 -57.56 Q 266.144 -58.776 266.144 -60.456 Q 266.144 -62.168 266.768 -63.392 Q 267.392 -64.616 268.456 -65.272 Q 269.52 -65.928 270.832 -65.928 Q 271.952 -65.928 272.672 -65.52 Q 273.392 -65.112 273.84 -64.632 L 273.088 -63.752 Q 272.16 -64.744 270.88 -64.744 Q 269.904 -64.744 269.152 -64.232 Q 268.4 -63.72 267.976 -62.768 Q 267.552 -61.816 267.552 -60.488 Q 267.552 -59.192 267.96 -58.24 Q 268.368 -57.288 269.112 -56.768 Q 269.856 -56.248 270.864 -56.248 Q 271.632 -56.248 272.24 -56.56 Q 272.848 -56.872 273.36 -57.416 L 274.096 -56.568 Q 273.456 -55.848 272.656 -55.448 Q 271.856 -55.048 270.816 -55.048 Z " fill="black" /><path d="M 278.688 -55.048 L 278.688 -55.048 Q 277.136 -55.048 276.248 -56.416 Q 275.36 -57.784 275.36 -60.312 Q 275.36 -62.856 276.248 -64.176 Q 277.136 -65.496 278.688 -65.496 Q 280.256 -65.496 281.144 -64.168 Q 282.032 -62.84 282.032 -60.312 Q 282.032 -57.784 281.144 -56.416 Q 280.256 -55.048 278.688 -55.048 Z M 278.688 -56.136 L 278.688 -56.136 Q 279.6 -56.136 280.16 -57.12 Q 280.72 -58.104 280.72 -60.312 Q 280.72 -62.52 280.16 -63.472 Q 279.6 -64.424 278.688 -64.424 Q 277.792 -64.424 277.224 -63.472 Q 276.656 -62.52 276.656 -60.312 Q 276.656 -58.104 277.224 -57.12 Q 277.792 -56.136 278.688 -56.136 Z " fill="black" /><path d="M 285.952 -63.304 L 285.952 -63.304 L 285.92 -66.536 L 287.344 -66.536 L 287.344 -66.248 L 286.56 -63.304 Z M 283.6 -63.304 L 283.6 -63.304 L 283.584 -66.536 L 284.992 -66.536 L 284.992 -66.248 L 284.208 -63.304 Z " fill="black" /></g></g></g><g><g><g><path d="M 249.672 -16.713 L 249.672 -16.713 L 249.96 -16.409 Q 249.144 -15.449 248.072 -14.833 Q 247 -14.217 245.48 -14.217 Q 244.04 -14.217 243.176 -14.753 Q 242.312 -15.289 241.936 -16.185 Q 241.56 -17.081 241.56 -18.137 Q 241.56 -19.817 242.072 -21.121 Q 242.584 -22.425 243.472 -23.313 Q 244.36 -24.201 245.48 -24.657 Q 246.6 -25.113 247.816 -25.113 Q 248.632 -25.113 249.088 -24.969 Q 249.544 -24.825 249.8 -24.673 Q 250.056 -24.521 250.248 -24.521 Q 250.44 -24.521 250.584 -24.681 Q 250.728 -24.841 250.92 -25.097 L 251.384 -25.097 L 250.632 -21.433 L 250.104 -21.433 Q 250.168 -23.033 249.512 -23.729 Q 248.856 -24.425 247.672 -24.425 Q 246.744 -24.425 245.928 -24.001 Q 245.112 -23.577 244.48 -22.801 Q 243.848 -22.025 243.488 -20.945 Q 243.128 -19.865 243.128 -18.537 Q 243.128 -16.937 243.888 -16.097 Q 244.648 -15.257 246.232 -15.257 Q 248.072 -15.257 249.672 -16.713 Z " fill="black" /><path d="M 251.835 -16.61 L 251.835 -16.61 L 251.578 -16.756 Q 252.216 -18.246 253.605 -18.246 Q 254.467 -18.246 254.938 -17.814 Q 255.408 -17.383 255.408 -16.745 Q 255.408 -16.162 255.066 -15.804 Q 254.725 -15.446 254.198 -15.11 L 254.198 -15.076 Q 254.646 -14.942 255.022 -14.69 Q 255.397 -14.438 255.621 -14.074 Q 255.845 -13.71 255.845 -13.206 Q 255.845 -12.444 255.419 -11.923 Q 254.994 -11.402 254.299 -11.145 Q 253.605 -10.887 252.787 -10.887 Q 252.283 -10.887 252.014 -10.982 Q 251.746 -11.078 251.639 -11.218 Q 251.533 -11.358 251.533 -11.503 Q 251.533 -11.682 251.645 -11.839 Q 251.757 -11.996 251.97 -11.996 Q 252.104 -11.996 252.222 -11.946 Q 252.339 -11.895 252.63 -11.738 Q 252.989 -11.559 253.162 -11.503 Q 253.336 -11.447 253.538 -11.447 Q 253.896 -11.447 254.21 -11.576 Q 254.523 -11.705 254.725 -12.013 Q 254.926 -12.321 254.926 -12.87 Q 254.926 -13.374 254.646 -13.743 Q 254.366 -14.113 253.902 -14.32 Q 253.437 -14.527 252.899 -14.527 L 252.675 -14.527 L 252.675 -14.953 L 252.888 -14.953 Q 253.269 -14.953 253.627 -15.143 Q 253.986 -15.334 254.215 -15.681 Q 254.445 -16.028 254.445 -16.476 Q 254.445 -16.969 254.137 -17.243 Q 253.829 -17.518 253.302 -17.518 Q 252.798 -17.518 252.462 -17.288 Q 252.126 -17.058 251.835 -16.61 Z " fill="black" /><path d="M 257.379 -16.61 L 257.379 -16.61 L 257.122 -16.756 Q 257.76 -18.246 259.149 -18.246 Q 260.011 -18.246 260.482 -17.814 Q 260.952 -17.383 260.952 -16.745 Q 260.952 -16.162 260.61 -15.804 Q 260.269 -15.446 259.742 -15.11 L 259.742 -15.076 Q 260.19 -14.942 260.566 -14.69 Q 260.941 -14.438 261.165 -14.074 Q 261.389 -13.71 261.389 -13.206 Q 261.389 -12.444 260.963 -11.923 Q 260.538 -11.402 259.843 -11.145 Q 259.149 -10.887 258.331 -10.887 Q 257.827 -10.887 257.558 -10.982 Q 257.29 -11.078 257.183 -11.218 Q 257.077 -11.358 257.077 -11.503 Q 257.077 -11.682 257.189 -11.839 Q 257.301 -11.996 257.514 -11.996 Q 257.648 -11.996 257.766 -11.946 Q 257.883 -11.895 258.174 -11.738 Q 258.533 -11.559 258.706 -11.503 Q 258.88 -11.447 259.082 -11.447 Q 259.44 -11.447 259.754 -11.576 Q 260.067 -11.705 260.269 -12.013 Q 260.47 -12.321 260.47 -12.87 Q 260.47 -13.374 260.19 -13.743 Q 259.91 -14.113 259.446 -14.32 Q 258.981 -14.527 258.443 -14.527 L 258.219 -14.527 L 258.219 -14.953 L 258.432 -14.953 Q 258.813 -14.953 259.171 -15.143 Q 259.53 -15.334 259.759 -15.681 Q 259.989 -16.028 259.989 -16.476 Q 259.989 -16.969 259.681 -17.243 Q 259.373 -17.518 258.846 -17.518 Q 258.342 -17.518 258.006 -17.288 Q 257.67 -17.058 257.379 -16.61 Z " fill="black" /></g></g></g><g><g><g><path d="M 135.672 -155.226 L 135.672 -155.226 L 135.96 -154.922 Q 135.144 -153.962 134.072 -153.346 Q 133 -152.73 131.48 -152.73 Q 130.04 -152.73 129.176 -153.266 Q 128.312 -153.802 127.936 -154.698 Q 127.56 -155.594 127.56 -156.65 Q 127.56 -158.33 128.072 -159.634 Q 128.584 -160.938 129.472 -161.826 Q 130.36 -162.714 131.48 -163.17 Q 132.6 -163.626 133.816 -163.626 Q 134.632 -163.626 135.088 -163.482 Q 135.544 -163.338 135.8 -163.186 Q 136.056 -163.034 136.248 -163.034 Q 136.44 -163.034 136.584 -163.194 Q 136.728 -163.354 136.92 -163.61 L 137.384 -163.61 L 136.632 -159.946 L 136.104 -159.946 Q 136.168 -161.546 135.512 -162.242 Q 134.856 -162.938 133.672 -162.938 Q 132.744 -162.938 131.928 -162.514 Q 131.112 -162.09 130.48 -161.314 Q 129.848 -160.538 129.488 -159.458 Q 129.128 -158.378 129.128 -157.05 Q 129.128 -155.45 129.888 -154.61 Q 130.648 -153.77 132.232 -153.77 Q 134.072 -153.77 135.672 -155.226 Z " fill="black" /><path d="M 141.643 -149.546 L 141.643 -149.546 L 137.768 -149.546 L 137.768 -149.859 Q 138.563 -149.859 138.888 -150.027 Q 139.213 -150.195 139.213 -150.61 L 139.213 -155.347 Q 139.213 -155.638 139.134 -155.767 Q 139.056 -155.896 138.843 -155.896 Q 138.675 -155.896 138.317 -155.851 Q 137.958 -155.806 137.701 -155.717 L 137.701 -156.086 L 139.874 -156.702 L 140.198 -156.702 L 140.198 -150.61 Q 140.198 -150.195 140.534 -150.027 Q 140.87 -149.859 141.643 -149.859 Z " fill="black" /><path d="M 143.379 -155.123 L 143.379 -155.123 L 143.122 -155.269 Q 143.76 -156.758 145.149 -156.758 Q 146.011 -156.758 146.482 -156.327 Q 146.952 -155.896 146.952 -155.258 Q 146.952 -154.675 146.61 -154.317 Q 146.269 -153.958 145.742 -153.622 L 145.742 -153.589 Q 146.19 -153.454 146.566 -153.202 Q 146.941 -152.95 147.165 -152.586 Q 147.389 -152.222 147.389 -151.718 Q 147.389 -150.957 146.963 -150.436 Q 146.538 -149.915 145.843 -149.658 Q 145.149 -149.4 144.331 -149.4 Q 143.827 -149.4 143.558 -149.495 Q 143.29 -149.59 143.183 -149.73 Q 143.077 -149.87 143.077 -150.016 Q 143.077 -150.195 143.189 -150.352 Q 143.301 -150.509 143.514 -150.509 Q 143.648 -150.509 143.766 -150.458 Q 143.883 -150.408 144.174 -150.251 Q 144.533 -150.072 144.706 -150.016 Q 144.88 -149.96 145.082 -149.96 Q 145.44 -149.96 145.754 -150.089 Q 146.067 -150.218 146.269 -150.526 Q 146.47 -150.834 146.47 -151.382 Q 146.47 -151.886 146.19 -152.256 Q 145.91 -152.626 145.446 -152.833 Q 144.981 -153.04 144.443 -153.04 L 144.219 -153.04 L 144.219 -153.466 L 144.432 -153.466 Q 144.813 -153.466 145.171 -153.656 Q 145.53 -153.846 145.759 -154.194 Q 145.989 -154.541 145.989 -154.989 Q 145.989 -155.482 145.681 -155.756 Q 145.373 -156.03 144.846 -156.03 Q 144.342 -156.03 144.006 -155.801 Q 143.67 -155.571 143.379 -155.123 Z " fill="black" /></g></g></g></svg>