<?xml version="1.0" encoding="UTF-8" standalone="no"?>
<!-- Created with Inkscape (http://www.inkscape.org/) -->

<svg
   version="1.1"
   id="svg1"
   width="203.64027"
   height="155.3121"
   viewBox="0 0 203.64028 155.31211"
   sodipodi:docname="magic_via_-_dimensions.svg"
   inkscape:version="1.3.2 (091e20e, 2023-11-25)"
   xmlns:inkscape="http://www.inkscape.org/namespaces/inkscape"
   xmlns:sodipodi="http://sodipodi.sourceforge.net/DTD/sodipodi-0.dtd"
   xmlns="http://www.w3.org/2000/svg"
   xmlns:svg="http://www.w3.org/2000/svg">
  <defs
     id="defs1">
    <clipPath
       clipPathUnits="userSpaceOnUse"
       id="clipPath1">
      <path
         d="M 301.11627,100.36336 H 1118.4496 V 1157.6967 H 301.11627 Z"
         id="path1" />
    </clipPath>
    <clipPath
       clipPathUnits="userSpaceOnUse"
       id="clipPath2">
      <path
         d="M 0,0 H 613 V 793 H 0 Z"
         id="path2" />
    </clipPath>
    <clipPath
       clipPathUnits="userSpaceOnUse"
       id="clipPath3">
      <path
         d="M 0,514.824 H 613 V 793 H 0 Z"
         transform="matrix(1.3333333,0,0,1.3333333,0,-677.31704)"
         id="path3" />
    </clipPath>
    <clipPath
       clipPathUnits="userSpaceOnUse"
       id="clipPath4">
      <path
         d="M 0,0 H 613 V 793 H 0 Z"
         transform="scale(1,-1.0003711)"
         id="path4" />
    </clipPath>
    <clipPath
       clipPathUnits="userSpaceOnUse"
       id="clipPath5">
      <path
         d="M 0,514.824 H 613 V 793 H 0 Z"
         transform="matrix(1.3333333,0,0,1.3333333,0,-677.31704)"
         id="path5" />
    </clipPath>
    <clipPath
       clipPathUnits="userSpaceOnUse"
       id="clipPath6">
      <path
         d="M 0,0 H 613 V 793 H 0 Z"
         transform="scale(1,-1.0003711)"
         id="path6" />
    </clipPath>
    <clipPath
       clipPathUnits="userSpaceOnUse"
       id="clipPath7">
      <path
         d="M 0,514.824 H 613 V 793 H 0 Z"
         transform="matrix(1.3333333,0,0,1.3333333,0,-677.31704)"
         id="path7" />
    </clipPath>
    <clipPath
       clipPathUnits="userSpaceOnUse"
       id="clipPath8">
      <path
         d="M 0,0 H 613 V 793 H 0 Z"
         id="path8" />
    </clipPath>
    <clipPath
       clipPathUnits="userSpaceOnUse"
       id="clipPath9">
      <path
         d="M 0,514.824 H 613 V 793 H 0 Z"
         transform="matrix(1.3333333,0,0,1.3333333,0,-677.31704)"
         id="path9" />
    </clipPath>
    <clipPath
       clipPathUnits="userSpaceOnUse"
       id="clipPath10">
      <path
         d="M 0,0 H 613 V 793 H 0 Z"
         transform="scale(1,-1.0003711)"
         id="path10" />
    </clipPath>
    <clipPath
       clipPathUnits="userSpaceOnUse"
       id="clipPath11">
      <path
         d="M 0,514.824 H 613 V 793 H 0 Z"
         transform="matrix(1.3333333,0,0,1.3333333,0,-677.31704)"
         id="path11" />
    </clipPath>
    <clipPath
       clipPathUnits="userSpaceOnUse"
       id="clipPath12">
      <path
         d="M 0,0 H 613 V 793 H 0 Z"
         id="path12" />
    </clipPath>
    <clipPath
       clipPathUnits="userSpaceOnUse"
       id="clipPath13">
      <path
         d="M 0,514.824 H 613 V 793 H 0 Z"
         transform="matrix(1.3333333,0,0,1.3333333,0,-677.31704)"
         id="path13" />
    </clipPath>
    <clipPath
       clipPathUnits="userSpaceOnUse"
       id="clipPath14">
      <path
         d="M 0,0 H 613 V 793 H 0 Z"
         transform="scale(1,-1.0003711)"
         id="path14" />
    </clipPath>
    <clipPath
       clipPathUnits="userSpaceOnUse"
       id="clipPath15">
      <path
         d="M 0,514.824 H 613 V 793 H 0 Z"
         transform="matrix(1.3333333,0,0,1.3333333,0,-677.31704)"
         id="path15" />
    </clipPath>
    <clipPath
       clipPathUnits="userSpaceOnUse"
       id="clipPath16">
      <path
         d="M 0,0 H 613 V 793 H 0 Z"
         id="path16" />
    </clipPath>
    <clipPath
       clipPathUnits="userSpaceOnUse"
       id="clipPath17">
      <path
         d="M 0,514.824 H 613 V 793 H 0 Z"
         transform="matrix(1.3333333,0,0,1.3333333,0,-677.31704)"
         id="path17" />
    </clipPath>
    <clipPath
       clipPathUnits="userSpaceOnUse"
       id="clipPath18">
      <path
         d="M 0,0 H 613 V 793 H 0 Z"
         transform="scale(1,-1.0003711)"
         id="path18" />
    </clipPath>
    <clipPath
       clipPathUnits="userSpaceOnUse"
       id="clipPath19">
      <path
         d="M 0,514.824 H 613 V 793 H 0 Z"
         transform="matrix(1.3333333,0,0,1.3333333,0,-677.31704)"
         id="path19" />
    </clipPath>
    <clipPath
       clipPathUnits="userSpaceOnUse"
       id="clipPath20">
      <path
         d="M 0,0 H 613 V 793 H 0 Z"
         id="path20" />
    </clipPath>
    <clipPath
       clipPathUnits="userSpaceOnUse"
       id="clipPath21">
      <path
         d="M 0,514.824 H 613 V 793 H 0 Z"
         transform="matrix(1.3333333,0,0,1.3333333,0,-677.31704)"
         id="path21" />
    </clipPath>
    <clipPath
       clipPathUnits="userSpaceOnUse"
       id="clipPath22">
      <path
         d="M 0,0 H 613 V 793 H 0 Z"
         transform="scale(1,-1.0003711)"
         id="path22" />
    </clipPath>
    <clipPath
       clipPathUnits="userSpaceOnUse"
       id="clipPath23">
      <path
         d="M 0,514.824 H 613 V 793 H 0 Z"
         transform="matrix(1.3333333,0,0,1.3333333,0,-677.31704)"
         id="path23" />
    </clipPath>
    <clipPath
       clipPathUnits="userSpaceOnUse"
       id="clipPath24">
      <path
         d="M 0,0 H 613 V 793 H 0 Z"
         id="path24" />
    </clipPath>
    <clipPath
       clipPathUnits="userSpaceOnUse"
       id="clipPath25">
      <path
         d="M 0,514.824 H 613 V 793 H 0 Z"
         transform="matrix(1.3333333,0,0,1.3333333,0,-677.31704)"
         id="path25" />
    </clipPath>
    <clipPath
       clipPathUnits="userSpaceOnUse"
       id="clipPath26">
      <path
         d="M 0,0 H 613 V 793 H 0 Z"
         transform="scale(1,-1.0003711)"
         id="path26" />
    </clipPath>
    <clipPath
       clipPathUnits="userSpaceOnUse"
       id="clipPath27">
      <path
         d="M 0,514.824 H 613 V 793 H 0 Z"
         transform="matrix(1.3333333,0,0,1.3333333,0,-677.31704)"
         id="path27" />
    </clipPath>
    <clipPath
       clipPathUnits="userSpaceOnUse"
       id="clipPath28">
      <path
         d="M 0,0 H 613 V 793 H 0 Z"
         id="path28" />
    </clipPath>
    <clipPath
       clipPathUnits="userSpaceOnUse"
       id="clipPath29">
      <path
         d="M 0,514.824 H 613 V 793 H 0 Z"
         transform="matrix(1.3333333,0,0,1.3333333,0,-677.31704)"
         id="path29" />
    </clipPath>
    <clipPath
       clipPathUnits="userSpaceOnUse"
       id="clipPath30">
      <path
         d="M 0,0 H 613 V 793 H 0 Z"
         transform="scale(1,-1.0003711)"
         id="path30" />
    </clipPath>
    <clipPath
       clipPathUnits="userSpaceOnUse"
       id="clipPath31">
      <path
         d="M 0,514.824 H 613 V 793 H 0 Z"
         transform="matrix(1.3333333,0,0,1.3333333,0,-677.31704)"
         id="path31" />
    </clipPath>
    <clipPath
       clipPathUnits="userSpaceOnUse"
       id="clipPath32">
      <path
         d="M 0,0 H 613 V 793 H 0 Z"
         transform="scale(1,-1.0003711)"
         id="path32" />
    </clipPath>
    <clipPath
       clipPathUnits="userSpaceOnUse"
       id="clipPath33">
      <path
         d="M 0,514.824 H 613 V 793 H 0 Z"
         transform="matrix(1.3333333,0,0,1.3333333,0,-677.31704)"
         id="path33" />
    </clipPath>
    <clipPath
       clipPathUnits="userSpaceOnUse"
       id="clipPath34">
      <path
         d="M 0,0 H 613 V 793 H 0 Z"
         transform="scale(1,-1.0003711)"
         id="path34" />
    </clipPath>
    <clipPath
       clipPathUnits="userSpaceOnUse"
       id="clipPath35">
      <path
         d="M 0,514.824 H 613 V 793 H 0 Z"
         transform="matrix(1.3333333,0,0,1.3333333,0,-677.31704)"
         id="path35" />
    </clipPath>
    <clipPath
       clipPathUnits="userSpaceOnUse"
       id="clipPath36">
      <path
         d="M 0,0 H 613 V 793 H 0 Z"
         transform="scale(1,-1.0003711)"
         id="path36" />
    </clipPath>
    <clipPath
       clipPathUnits="userSpaceOnUse"
       id="clipPath37">
      <path
         d="M 0,514.824 H 613 V 793 H 0 Z"
         transform="matrix(1.3333333,0,0,1.3333333,0,-677.31704)"
         id="path37" />
    </clipPath>
    <clipPath
       clipPathUnits="userSpaceOnUse"
       id="clipPath38">
      <path
         d="M 0,0 H 613 V 793 H 0 Z"
         transform="scale(1,-1.0003711)"
         id="path38" />
    </clipPath>
    <clipPath
       clipPathUnits="userSpaceOnUse"
       id="clipPath39">
      <path
         d="M 0,514.824 H 613 V 793 H 0 Z"
         transform="matrix(1.3333333,0,0,1.3333333,0,-677.31704)"
         id="path39" />
    </clipPath>
    <clipPath
       clipPathUnits="userSpaceOnUse"
       id="clipPath40">
      <path
         d="M 0,0 H 613 V 793 H 0 Z"
         transform="scale(1,-1.0003711)"
         id="path40" />
    </clipPath>
    <clipPath
       clipPathUnits="userSpaceOnUse"
       id="clipPath41">
      <path
         d="M 0,514.824 H 613 V 793 H 0 Z"
         transform="matrix(1.3333333,0,0,1.3333333,0,-677.31704)"
         id="path41" />
    </clipPath>
    <clipPath
       clipPathUnits="userSpaceOnUse"
       id="clipPath42">
      <path
         d="M 0,0 H 613 V 793 H 0 Z"
         transform="scale(1,-1.0003711)"
         id="path42" />
    </clipPath>
    <clipPath
       clipPathUnits="userSpaceOnUse"
       id="clipPath43">
      <path
         d="M 0,514.824 H 613 V 793 H 0 Z"
         transform="matrix(1.3333333,0,0,1.3333333,0,-677.31704)"
         id="path43" />
    </clipPath>
    <clipPath
       clipPathUnits="userSpaceOnUse"
       id="clipPath44">
      <path
         d="M 0,0 H 613 V 793 H 0 Z"
         transform="scale(1,-1.0003711)"
         id="path44" />
    </clipPath>
    <clipPath
       clipPathUnits="userSpaceOnUse"
       id="clipPath45">
      <path
         d="M 0,514.824 H 613 V 793 H 0 Z"
         transform="matrix(1.3333333,0,0,1.3333333,0,-677.31704)"
         id="path45" />
    </clipPath>
    <clipPath
       clipPathUnits="userSpaceOnUse"
       id="clipPath46">
      <path
         d="M 0,0 H 613 V 793 H 0 Z"
         transform="scale(1,-1.0003711)"
         id="path46" />
    </clipPath>
    <clipPath
       clipPathUnits="userSpaceOnUse"
       id="clipPath47">
      <path
         d="M 0,514.824 H 613 V 793 H 0 Z"
         transform="matrix(1.3333333,0,0,1.3333333,0,-677.31704)"
         id="path47" />
    </clipPath>
    <clipPath
       clipPathUnits="userSpaceOnUse"
       id="clipPath48">
      <path
         d="M 0,0 H 613 V 793 H 0 Z"
         transform="scale(1,-1.0003711)"
         id="path48" />
    </clipPath>
    <clipPath
       clipPathUnits="userSpaceOnUse"
       id="clipPath49">
      <path
         d="M 0,514.824 H 613 V 793 H 0 Z"
         transform="matrix(1.3333333,0,0,1.3333333,0,-677.31704)"
         id="path49" />
    </clipPath>
    <clipPath
       clipPathUnits="userSpaceOnUse"
       id="clipPath50">
      <path
         d="M 0,0 H 613 V 793 H 0 Z"
         transform="scale(1,-1.0003711)"
         id="path50" />
    </clipPath>
    <clipPath
       clipPathUnits="userSpaceOnUse"
       id="clipPath51">
      <path
         d="M 0,514.824 H 613 V 793 H 0 Z"
         transform="matrix(1.3333333,0,0,1.3333333,0,-677.31704)"
         id="path51" />
    </clipPath>
    <clipPath
       clipPathUnits="userSpaceOnUse"
       id="clipPath52">
      <path
         d="M 0,0 H 613 V 793 H 0 Z"
         transform="scale(1,-1.0003711)"
         id="path52" />
    </clipPath>
    <clipPath
       clipPathUnits="userSpaceOnUse"
       id="clipPath53">
      <path
         d="M 0,514.824 H 613 V 793 H 0 Z"
         transform="matrix(1.3333333,0,0,1.3333333,0,-677.31704)"
         id="path53" />
    </clipPath>
    <clipPath
       clipPathUnits="userSpaceOnUse"
       id="clipPath54">
      <path
         d="M 0,0 H 613 V 793 H 0 Z"
         transform="scale(1,-1.0003711)"
         id="path54" />
    </clipPath>
    <clipPath
       clipPathUnits="userSpaceOnUse"
       id="clipPath55">
      <path
         d="M 0,514.824 H 613 V 793 H 0 Z"
         transform="matrix(1.3333333,0,0,1.3333333,0,-677.31704)"
         id="path55" />
    </clipPath>
    <clipPath
       clipPathUnits="userSpaceOnUse"
       id="clipPath56">
      <path
         d="M 0,0 H 613 V 793 H 0 Z"
         id="path56" />
    </clipPath>
    <clipPath
       clipPathUnits="userSpaceOnUse"
       id="clipPath57">
      <path
         d="M 0,514.824 H 613 V 793 H 0 Z"
         transform="matrix(1.3333333,0,0,1.3333333,0,-677.31704)"
         id="path57" />
    </clipPath>
    <clipPath
       clipPathUnits="userSpaceOnUse"
       id="clipPath58">
      <path
         d="M 0,0 H 613 V 793 H 0 Z"
         id="path58" />
    </clipPath>
    <clipPath
       clipPathUnits="userSpaceOnUse"
       id="clipPath59">
      <path
         d="M 0,514.824 H 613 V 793 H 0 Z"
         transform="matrix(1.3333333,0,0,1.3333333,0,-677.31704)"
         id="path59" />
    </clipPath>
    <clipPath
       clipPathUnits="userSpaceOnUse"
       id="clipPath60">
      <path
         d="M 0,0 H 613 V 793 H 0 Z"
         id="path60" />
    </clipPath>
    <clipPath
       clipPathUnits="userSpaceOnUse"
       id="clipPath61">
      <path
         d="M 0,514.824 H 613 V 793 H 0 Z"
         transform="matrix(1.3333333,0,0,1.3333333,0,-677.31704)"
         id="path61" />
    </clipPath>
    <clipPath
       clipPathUnits="userSpaceOnUse"
       id="clipPath62">
      <path
         d="M 0,0 H 613 V 793 H 0 Z"
         id="path62" />
    </clipPath>
    <clipPath
       clipPathUnits="userSpaceOnUse"
       id="clipPath63">
      <path
         d="M 0,514.824 H 613 V 793 H 0 Z"
         transform="matrix(1.3333333,0,0,1.3333333,0,-677.31704)"
         id="path63" />
    </clipPath>
    <clipPath
       clipPathUnits="userSpaceOnUse"
       id="clipPath64">
      <path
         d="M 0,0 H 613 V 793 H 0 Z"
         id="path64" />
    </clipPath>
    <clipPath
       clipPathUnits="userSpaceOnUse"
       id="clipPath65">
      <path
         d="M 0,514.824 H 613 V 793 H 0 Z"
         transform="matrix(1.3333333,0,0,1.3333333,0,-677.31704)"
         id="path65" />
    </clipPath>
    <clipPath
       clipPathUnits="userSpaceOnUse"
       id="clipPath66">
      <path
         d="M 0,0 H 613 V 793 H 0 Z"
         id="path66" />
    </clipPath>
    <clipPath
       clipPathUnits="userSpaceOnUse"
       id="clipPath67">
      <path
         d="M 0,514.824 H 613 V 793 H 0 Z"
         transform="matrix(1.3333333,0,0,1.3333333,0,-677.31704)"
         id="path67" />
    </clipPath>
    <clipPath
       clipPathUnits="userSpaceOnUse"
       id="clipPath68">
      <path
         d="M 0,0 H 613 V 793 H 0 Z"
         transform="matrix(1,0,0.21263573,1.000371,-375.94101,-601.511)"
         id="path68" />
    </clipPath>
    <clipPath
       clipPathUnits="userSpaceOnUse"
       id="clipPath69">
      <path
         d="M 0,514.824 H 613 V 793 H 0 Z"
         transform="matrix(1.3333333,0,0,1.3333333,0,-677.31704)"
         id="path69" />
    </clipPath>
    <clipPath
       clipPathUnits="userSpaceOnUse"
       id="clipPath70">
      <path
         d="M 0,0 H 613 V 793 H 0 Z"
         transform="matrix(1,0,0.21263573,1.000371,-397.65064,-710.79088)"
         id="path70" />
    </clipPath>
    <clipPath
       clipPathUnits="userSpaceOnUse"
       id="clipPath71">
      <path
         d="M 0,514.824 H 613 V 793 H 0 Z"
         transform="matrix(1.3333333,0,0,1.3333333,0,-677.31704)"
         id="path71" />
    </clipPath>
    <clipPath
       clipPathUnits="userSpaceOnUse"
       id="clipPath72">
      <path
         d="M 0,0 H 613 V 793 H 0 Z"
         transform="matrix(1,0,0.21263573,1.000371,-498.92307,-683.68345)"
         id="path72" />
    </clipPath>
    <clipPath
       clipPathUnits="userSpaceOnUse"
       id="clipPath73">
      <path
         d="M 0,514.824 H 613 V 793 H 0 Z"
         transform="matrix(1.3333333,0,0,1.3333333,0,-677.31704)"
         id="path73" />
    </clipPath>
    <clipPath
       clipPathUnits="userSpaceOnUse"
       id="clipPath110">
      <path
         d="M 226.035,588.148 H 613 V 793 H 226.035 Z"
         transform="matrix(1.3333333,0,0,1.3333333,0,-677.31704)"
         id="path110" />
    </clipPath>
  </defs>
  <sodipodi:namedview
     id="namedview1"
     pagecolor="#ffffff"
     bordercolor="#000000"
     borderopacity="0.25"
     inkscape:showpageshadow="2"
     inkscape:pageopacity="0.0"
     inkscape:pagecheckerboard="0"
     inkscape:deskcolor="#d1d1d1"
     inkscape:zoom="5.5146263"
     inkscape:cx="105.26552"
     inkscape:cy="77.611787"
     inkscape:window-width="1872"
     inkscape:window-height="1099"
     inkscape:window-x="0"
     inkscape:window-y="25"
     inkscape:window-maximized="0"
     inkscape:current-layer="g110">
    <inkscape:page
       x="0"
       y="0"
       id="page1"
       width="203.64027"
       height="155.3121"
       margin="0"
       bleed="0" />
  </sodipodi:namedview>
  <g
     id="g1"
     inkscape:groupmode="layer"
     inkscape:label=""
     clip-path="url(#clipPath1)"
     transform="translate(-308.52738,-115.00288)">
    <g
       id="g110"
       clip-path="url(#clipPath110)">
      <g
         clip-path="url(#clipPath3)"
         id="g74"
         style="display:inline">
        <path
           d="m 239.578,620.938 h 94.363 v 62.887 h -94.363 z"
           style="fill:#5cacee;fill-opacity:1;fill-rule:evenodd;stroke:none"
           transform="matrix(1.3333333,0,0,1.3333333,0,-677.31704)"
           clip-path="url(#clipPath2)"
           id="path74" />
      </g>
      <g
         clip-path="url(#clipPath5)"
         id="g75"
         style="display:inline">
        <path
           d="m 239.578,-621.168 h 94.363 v -62.91 h -94.363 z"
           style="fill:none;stroke:#c05580;stroke-width:0.638923;stroke-linecap:round;stroke-linejoin:miter;stroke-miterlimit:6;stroke-dasharray:none;stroke-opacity:1"
           transform="matrix(1.3333333,0,0,-1.3328387,0,-677.31704)"
           clip-path="url(#clipPath4)"
           id="path75" />
      </g>
      <g
         clip-path="url(#clipPath7)"
         id="g76">
        <path
           d="m 239.578,-621.168 h 94.363 v -62.91 h -94.363 z"
           style="fill:none;stroke:#000000;stroke-width:0.638923;stroke-linecap:round;stroke-linejoin:miter;stroke-miterlimit:6;stroke-dasharray:none;stroke-opacity:1"
           transform="matrix(1.3333333,0,0,-1.3328387,0,-677.31704)"
           clip-path="url(#clipPath6)"
           id="path76" />
      </g>
      <g
         clip-path="url(#clipPath9)"
         id="g77">
        <path
           d="m 247.441,660.242 h 15.73 v 15.723 h -15.73 z"
           style="fill:#000000;fill-opacity:1;fill-rule:evenodd;stroke:none"
           transform="matrix(1.3333333,0,0,1.3333333,0,-677.31704)"
           clip-path="url(#clipPath8)"
           id="path77" />
      </g>
      <g
         clip-path="url(#clipPath11)"
         id="g78">
        <path
           d="m 247.441,-660.487 h 15.73 v -15.728 h -15.73 z"
           style="fill:none;stroke:#000000;stroke-width:0.638923;stroke-linecap:round;stroke-linejoin:miter;stroke-miterlimit:6;stroke-dasharray:none;stroke-opacity:1"
           transform="matrix(1.3333333,0,0,-1.3328387,0,-677.31704)"
           clip-path="url(#clipPath10)"
           id="path78" />
      </g>
      <g
         clip-path="url(#clipPath13)"
         id="g79">
        <path
           d="m 247.441,628.801 h 15.73 v 15.719 h -15.73 z"
           style="fill:#000000;fill-opacity:1;fill-rule:evenodd;stroke:none"
           transform="matrix(1.3333333,0,0,1.3333333,0,-677.31704)"
           clip-path="url(#clipPath12)"
           id="path79" />
      </g>
      <g
         clip-path="url(#clipPath15)"
         id="g80">
        <path
           d="m 247.441,-629.034 h 15.73 v -15.725 h -15.73 z"
           style="fill:none;stroke:#000000;stroke-width:0.638923;stroke-linecap:round;stroke-linejoin:miter;stroke-miterlimit:6;stroke-dasharray:none;stroke-opacity:1"
           transform="matrix(1.3333333,0,0,-1.3328387,0,-677.31704)"
           clip-path="url(#clipPath14)"
           id="path80" />
      </g>
      <g
         clip-path="url(#clipPath17)"
         id="g81">
        <path
           d="m 278.898,660.242 h 15.727 v 15.723 h -15.727 z"
           style="fill:#000000;fill-opacity:1;fill-rule:evenodd;stroke:none"
           transform="matrix(1.3333333,0,0,1.3333333,0,-677.31704)"
           clip-path="url(#clipPath16)"
           id="path81" />
      </g>
      <g
         clip-path="url(#clipPath19)"
         id="g82">
        <path
           d="m 278.898,-660.487 h 15.727 v -15.728 h -15.727 z"
           style="fill:none;stroke:#000000;stroke-width:0.638923;stroke-linecap:round;stroke-linejoin:miter;stroke-miterlimit:6;stroke-dasharray:none;stroke-opacity:1"
           transform="matrix(1.3333333,0,0,-1.3328387,0,-677.31704)"
           clip-path="url(#clipPath18)"
           id="path82" />
      </g>
      <g
         clip-path="url(#clipPath21)"
         id="g83">
        <path
           d="m 278.898,628.801 h 15.727 v 15.719 h -15.727 z"
           style="fill:#000000;fill-opacity:1;fill-rule:evenodd;stroke:none"
           transform="matrix(1.3333333,0,0,1.3333333,0,-677.31704)"
           clip-path="url(#clipPath20)"
           id="path83" />
      </g>
      <g
         clip-path="url(#clipPath23)"
         id="g84">
        <path
           d="m 278.898,-629.034 h 15.727 v -15.725 h -15.727 z"
           style="fill:none;stroke:#000000;stroke-width:0.638923;stroke-linecap:round;stroke-linejoin:miter;stroke-miterlimit:6;stroke-dasharray:none;stroke-opacity:1"
           transform="matrix(1.3333333,0,0,-1.3328387,0,-677.31704)"
           clip-path="url(#clipPath22)"
           id="path84" />
      </g>
      <g
         clip-path="url(#clipPath25)"
         id="g85">
        <path
           d="m 310.352,660.242 h 15.727 v 15.723 h -15.727 z"
           style="fill:#000000;fill-opacity:1;fill-rule:evenodd;stroke:none"
           transform="matrix(1.3333333,0,0,1.3333333,0,-677.31704)"
           clip-path="url(#clipPath24)"
           id="path85" />
      </g>
      <g
         clip-path="url(#clipPath27)"
         id="g86">
        <path
           d="m 310.352,-660.487 h 15.727 v -15.728 h -15.727 z"
           style="fill:none;stroke:#000000;stroke-width:0.638923;stroke-linecap:round;stroke-linejoin:miter;stroke-miterlimit:6;stroke-dasharray:none;stroke-opacity:1"
           transform="matrix(1.3333333,0,0,-1.3328387,0,-677.31704)"
           clip-path="url(#clipPath26)"
           id="path86" />
      </g>
      <g
         clip-path="url(#clipPath29)"
         id="g87">
        <path
           d="m 310.352,628.801 h 15.727 v 15.719 h -15.727 z"
           style="fill:#000000;fill-opacity:1;fill-rule:evenodd;stroke:none"
           transform="matrix(1.3333333,0,0,1.3333333,0,-677.31704)"
           clip-path="url(#clipPath28)"
           id="path87" />
      </g>
      <g
         clip-path="url(#clipPath31)"
         id="g88">
        <path
           d="m 310.352,-629.034 h 15.727 v -15.725 h -15.727 z"
           style="fill:none;stroke:#000000;stroke-width:0.638923;stroke-linecap:round;stroke-linejoin:miter;stroke-miterlimit:6;stroke-dasharray:none;stroke-opacity:1"
           transform="matrix(1.3333333,0,0,-1.3328387,0,-677.31704)"
           clip-path="url(#clipPath30)"
           id="path88" />
      </g>
      <g
         clip-path="url(#clipPath33)"
         id="g89">
        <path
           d="m 263.168,-605.443 v -11.794"
           style="fill:none;stroke:#000000;stroke-width:0.638923;stroke-linecap:round;stroke-linejoin:miter;stroke-miterlimit:6;stroke-dasharray:none;stroke-opacity:1"
           transform="matrix(1.3333333,0,0,-1.3328387,0,-677.31704)"
           clip-path="url(#clipPath32)"
           id="path89" />
      </g>
      <g
         clip-path="url(#clipPath35)"
         id="g90">
        <path
           d="m 278.898,-605.443 v -11.794"
           style="fill:none;stroke:#000000;stroke-width:0.638923;stroke-linecap:round;stroke-linejoin:miter;stroke-miterlimit:6;stroke-dasharray:none;stroke-opacity:1"
           transform="matrix(1.3333333,0,0,-1.3328387,0,-677.31704)"
           clip-path="url(#clipPath34)"
           id="path90" />
      </g>
      <g
         clip-path="url(#clipPath37)"
         id="g91">
        <path
           d="M 349.672,-676.216 H 337.875"
           style="fill:none;stroke:#000000;stroke-width:0.638923;stroke-linecap:round;stroke-linejoin:miter;stroke-miterlimit:6;stroke-dasharray:none;stroke-opacity:1"
           transform="matrix(1.3333333,0,0,-1.3328387,0,-677.31704)"
           clip-path="url(#clipPath36)"
           id="path91" />
      </g>
      <g
         clip-path="url(#clipPath39)"
         id="g92">
        <path
           d="M 349.672,-684.078 H 337.875"
           style="fill:none;stroke:#000000;stroke-width:0.638923;stroke-linecap:round;stroke-linejoin:miter;stroke-miterlimit:6;stroke-dasharray:none;stroke-opacity:1"
           transform="matrix(1.3333333,0,0,-1.3328387,0,-677.31704)"
           clip-path="url(#clipPath38)"
           id="path92" />
      </g>
      <g
         clip-path="url(#clipPath41)"
         id="g93">
        <path
           d="m 247.441,-699.806 v 19.659"
           style="fill:none;stroke:#000000;stroke-width:0.638923;stroke-linecap:round;stroke-linejoin:miter;stroke-miterlimit:6;stroke-dasharray:none;stroke-opacity:1"
           transform="matrix(1.3333333,0,0,-1.3328387,0,-677.31704)"
           clip-path="url(#clipPath40)"
           id="path93" />
      </g>
      <g
         clip-path="url(#clipPath43)"
         id="g94">
        <path
           d="m 263.168,-699.806 v 19.659"
           style="fill:none;stroke:#000000;stroke-width:0.638923;stroke-linecap:round;stroke-linejoin:miter;stroke-miterlimit:6;stroke-dasharray:none;stroke-opacity:1"
           transform="matrix(1.3333333,0,0,-1.3328387,0,-677.31704)"
           clip-path="url(#clipPath42)"
           id="path94" />
      </g>
      <g
         clip-path="url(#clipPath45)"
         id="g95">
        <path
           d="M 259.238,-609.374 H 247.441"
           style="fill:none;stroke:#000000;stroke-width:0.638923;stroke-linecap:round;stroke-linejoin:miter;stroke-miterlimit:6;stroke-dasharray:none;stroke-opacity:1"
           transform="matrix(1.3333333,0,0,-1.3328387,0,-677.31704)"
           clip-path="url(#clipPath44)"
           id="path95" />
      </g>
      <g
         clip-path="url(#clipPath47)"
         id="g96">
        <path
           d="M 294.625,-609.374 H 282.828"
           style="fill:none;stroke:#000000;stroke-width:0.638923;stroke-linecap:round;stroke-linejoin:miter;stroke-miterlimit:6;stroke-dasharray:none;stroke-opacity:1"
           transform="matrix(1.3333333,0,0,-1.3328387,0,-677.31704)"
           clip-path="url(#clipPath46)"
           id="path96" />
      </g>
      <g
         clip-path="url(#clipPath49)"
         id="g97">
        <path
           d="m 345.738,-660.487 v -11.797"
           style="fill:none;stroke:#000000;stroke-width:0.638923;stroke-linecap:round;stroke-linejoin:miter;stroke-miterlimit:6;stroke-dasharray:none;stroke-opacity:1"
           transform="matrix(1.3333333,0,0,-1.3328387,0,-677.31704)"
           clip-path="url(#clipPath48)"
           id="path97" />
      </g>
      <g
         clip-path="url(#clipPath51)"
         id="g98">
        <path
           d="m 345.738,-703.737 v 15.724"
           style="fill:none;stroke:#000000;stroke-width:0.638923;stroke-linecap:round;stroke-linejoin:miter;stroke-miterlimit:6;stroke-dasharray:none;stroke-opacity:1"
           transform="matrix(1.3333333,0,0,-1.3328387,0,-677.31704)"
           clip-path="url(#clipPath50)"
           id="path98" />
      </g>
      <g
         clip-path="url(#clipPath53)"
         id="g99">
        <path
           d="M 278.898,-695.875 H 267.102"
           style="fill:none;stroke:#000000;stroke-width:0.638923;stroke-linecap:round;stroke-linejoin:miter;stroke-miterlimit:6;stroke-dasharray:none;stroke-opacity:1"
           transform="matrix(1.3333333,0,0,-1.3328387,0,-677.31704)"
           clip-path="url(#clipPath52)"
           id="path99" />
      </g>
      <g
         clip-path="url(#clipPath55)"
         id="g100">
        <path
           d="m 231.715,-695.875 h 11.797"
           style="fill:none;stroke:#000000;stroke-width:0.638923;stroke-linecap:round;stroke-linejoin:miter;stroke-miterlimit:6;stroke-dasharray:none;stroke-opacity:1"
           transform="matrix(1.3333333,0,0,-1.3328387,0,-677.31704)"
           clip-path="url(#clipPath54)"
           id="path100" />
      </g>
      <g
         clip-path="url(#clipPath57)"
         id="g101">
        <path
           d="m 270.051,693.652 c -2.457,1.227 -3.196,1.227 -6.883,1.965 3.687,0.738 4.426,0.738 6.883,1.965 -0.492,-1.473 -0.492,-2.457 0,-3.93"
           style="fill:#000000;fill-opacity:1;fill-rule:evenodd;stroke:none"
           transform="matrix(1.3333333,0,0,1.3333333,0,-677.31704)"
           clip-path="url(#clipPath56)"
           id="path101" />
      </g>
      <g
         clip-path="url(#clipPath59)"
         id="g102">
        <path
           d="m 285.777,607.184 c -2.457,1.226 -3.195,1.226 -6.879,1.964 3.684,0.739 4.422,0.739 6.879,1.965 -0.492,-1.472 -0.492,-2.457 0,-3.929"
           style="fill:#000000;fill-opacity:1;fill-rule:evenodd;stroke:none"
           transform="matrix(1.3333333,0,0,1.3333333,0,-677.31704)"
           clip-path="url(#clipPath58)"
           id="path102" />
      </g>
      <g
         clip-path="url(#clipPath61)"
         id="g103">
        <path
           d="m 256.289,607.184 c 2.457,1.226 3.195,1.226 6.879,1.964 -3.684,0.739 -4.422,0.739 -6.879,1.965 0.492,-1.472 0.492,-2.457 0,-3.929"
           style="fill:#000000;fill-opacity:1;fill-rule:evenodd;stroke:none"
           transform="matrix(1.3333333,0,0,1.3333333,0,-677.31704)"
           clip-path="url(#clipPath60)"
           id="path103" />
      </g>
      <g
         clip-path="url(#clipPath63)"
         id="g104">
        <path
           d="m 240.562,693.652 c 2.458,1.227 3.196,1.227 6.879,1.965 -3.683,0.738 -4.421,0.738 -6.879,1.965 0.493,-1.473 0.493,-2.457 0,-3.93"
           style="fill:#000000;fill-opacity:1;fill-rule:evenodd;stroke:none"
           transform="matrix(1.3333333,0,0,1.3333333,0,-677.31704)"
           clip-path="url(#clipPath62)"
           id="path104" />
      </g>
      <g
         clip-path="url(#clipPath65)"
         id="g105">
        <path
           d="m 347.703,669.086 c -1.226,2.457 -1.226,3.195 -1.965,6.879 -0.738,-3.684 -0.738,-4.422 -1.965,-6.879 1.473,0.492 2.457,0.492 3.93,0"
           style="fill:#000000;fill-opacity:1;fill-rule:evenodd;stroke:none"
           transform="matrix(1.3333333,0,0,1.3333333,0,-677.31704)"
           clip-path="url(#clipPath64)"
           id="path105" />
      </g>
      <g
         clip-path="url(#clipPath67)"
         id="g106">
        <path
           d="m 347.703,690.703 c -1.226,-2.457 -1.226,-3.191 -1.965,-6.879 -0.738,3.688 -0.738,4.422 -1.965,6.879 1.473,-0.492 2.457,-0.492 3.93,0"
           style="fill:#000000;fill-opacity:1;fill-rule:evenodd;stroke:none"
           transform="matrix(1.3333333,0,0,1.3333333,0,-677.31704)"
           clip-path="url(#clipPath66)"
           id="path106" />
      </g>
      <text
         xml:space="preserve"
         style="font-style:normal;font-variant:normal;font-weight:normal;font-stretch:normal;font-size:13.1037px;line-height:0;font-family:'Helvetica Neue';-inkscape-font-specification:'Helvetica Neue, Normal';font-variant-ligatures:normal;font-variant-caps:normal;font-variant-numeric:normal;font-variant-east-asian:normal;fill:#5cacee;fill-opacity:1"
         x="337.72247"
         y="125.15768"
         id="text130"><tspan
           sodipodi:role="line"
           id="tspan130"
           x="337.72247"
           y="125.15768"
           style="fill:#000000;fill-opacity:1;-inkscape-font-specification:'Helvetica Neue, Normal';font-family:'Helvetica Neue';font-weight:normal;font-style:normal;font-stretch:normal;font-variant:normal;font-size:13.10369968px;font-variant-ligatures:normal;font-variant-caps:normal;font-variant-numeric:normal;font-variant-east-asian:normal">spacing</tspan></text>
      <text
         xml:space="preserve"
         style="font-style:normal;font-variant:normal;font-weight:normal;font-stretch:normal;font-size:13.1037px;line-height:0;font-family:'Helvetica Neue';-inkscape-font-specification:'Helvetica Neue, Normal';font-variant-ligatures:normal;font-variant-caps:normal;font-variant-numeric:normal;font-variant-east-asian:normal;fill:#5cacee;fill-opacity:1"
         x="322.16406"
         y="266.7666"
         id="text130-2"><tspan
           sodipodi:role="line"
           id="tspan130-6"
           x="322.16406"
           y="266.7666"
           style="fill:#000000;fill-opacity:1;-inkscape-font-specification:'Helvetica Neue, Normal';font-family:'Helvetica Neue';font-weight:normal;font-style:normal;font-stretch:normal;font-variant:normal;font-size:13.10369968px;font-variant-ligatures:normal;font-variant-caps:normal;font-variant-numeric:normal;font-variant-east-asian:normal">width</tspan></text>
      <text
         xml:space="preserve"
         style="font-style:normal;font-variant:normal;font-weight:normal;font-stretch:normal;font-size:13.1037px;line-height:0;font-family:'Helvetica Neue';-inkscape-font-specification:'Helvetica Neue, Normal';font-variant-ligatures:normal;font-variant-caps:normal;font-variant-numeric:normal;font-variant-east-asian:normal;fill:#5cacee;fill-opacity:1"
         x="467.81393"
         y="233.35423"
         id="text130-8"><tspan
           sodipodi:role="line"
           id="tspan130-3"
           x="467.81393"
           y="233.35423"
           style="font-style:normal;font-variant:normal;font-weight:normal;font-stretch:normal;font-size:13.1037px;font-family:'Helvetica Neue';-inkscape-font-specification:'Helvetica Neue, Normal';font-variant-ligatures:normal;font-variant-caps:normal;font-variant-numeric:normal;font-variant-east-asian:normal;fill:#000000;fill-opacity:1">border</tspan></text>
    </g>
  </g>
</svg>
